<?xml version="1.0" encoding="utf-8"?>
<!-- Generator: Adobe Illustrator 18.0.0, SVG Export Plug-In . SVG Version: 6.00 Build 0)  -->
<!DOCTYPE svg PUBLIC "-//W3C//DTD SVG 1.1//EN" "http://www.w3.org/Graphics/SVG/1.1/DTD/svg11.dtd">
<svg version="1.1" id="Layer_1" xmlns="http://www.w3.org/2000/svg" xmlns:xlink="http://www.w3.org/1999/xlink" x="0px" y="0px"
	 viewBox="0 0 411 108" style="enable-background:new 0 0 411 108;" xml:space="preserve">
<g>
	<title>Group 3</title>
	<path d="M119.7,47.2c-0.7-5.2-3.9-9.5-8.1-12.7l-1.6-1.3l-1.3,1.6c-2.6,2.9-3.6,8.1-3.3,12.1c0.3,2.9,1.3,5.9,2.9,8.1
		c-1.3,0.7-2.9,1.3-4.2,2c-2.9,1-5.9,1.3-8.8,1.3H10.9l-0.3,2c-0.7,6.2,0.3,12.7,2.9,18.6l1.3,2.3v0.3c7.8,13,21.8,18.9,37.2,18.9
		c29.3,0,53.5-12.7,64.9-40.1c7.5,0.3,15-1.6,18.6-8.8l1-1.6l-1.6-1C130.5,46.2,124.6,45.9,119.7,47.2L119.7,47.2z"/>
	<rect x="65" y="42" width="12.7" height="12.7"/>
	<rect x="65" y="26" width="12.7" height="12.7"/>
	<rect x="65" y="9.7" width="12.7" height="12.7"/>
	<rect x="80.6" y="42" width="12.7" height="12.7"/>
	<polygon points="46.1,42 33.4,42 33.4,54.7 46.1,54.7 46.1,42 	"/>
	<rect x="49.3" y="42" width="12.7" height="12.7"/>
	<polygon points="30.4,42 17.7,42 17.7,54.7 30.4,54.7 30.4,42 	"/>
	<rect x="49.3" y="26" width="12.7" height="12.7"/>
	<polygon points="46.1,26 33.4,26 33.4,38.7 46.1,38.7 46.1,26 	"/>
	<path d="M119.7,47.2c-0.7-5.2-3.9-9.5-8.1-12.7l-1.6-1.3l-1.3,1.6c-2.6,2.9-3.6,8.1-3.3,12.1c0.3,2.9,1.3,5.9,2.9,8.1
		c-1.3,0.7-2.9,1.3-4.2,2c-2.9,1-5.9,1.3-8.8,1.3H10.9l-0.3,2c-0.7,6.2,0.3,12.7,2.9,18.6l1.3,2.3v0.3c7.8,13,21.8,18.9,37.2,18.9
		c29.3,0,53.5-12.7,64.9-40.1c7.5,0.3,15-1.6,18.6-8.8l1-1.6l-1.6-1C130.5,46.2,124.6,45.9,119.7,47.2L119.7,47.2z"/>
	<rect x="65" y="42" width="12.7" height="12.7"/>
	<rect x="65" y="26" width="12.7" height="12.7"/>
	<rect x="65" y="9.7" width="12.7" height="12.7"/>
	<rect x="80.6" y="42" width="12.7" height="12.7"/>
	<polygon points="46.1,42 33.4,42 33.4,54.7 46.1,54.7 46.1,42 	"/>
	<rect x="49.3" y="42" width="12.7" height="12.7"/>
	<polygon points="30.4,42 17.7,42 17.7,54.7 30.4,54.7 30.4,42 	"/>
	<rect x="49.3" y="26" width="12.7" height="12.7"/>
	<polygon points="46.1,26 33.4,26 33.4,38.7 46.1,38.7 46.1,26 	"/>
	<path id="docker_2_" d="M339.4,74.9c5.5-4.9,11.1-9.5,16.6-14.3c2-1.6,3.9-3.3,5.9-5.2c-1.6-2-3.9-3.3-6.2-4.2
		c-4.2-1.6-8.5-1-12.7,1.3c-5.2,2.9-7.5,7.8-7.2,13.7c0,2.3,0.7,4.6,2,6.5C338.8,73.6,339.1,74.3,339.4,74.9 M345.9,79.5
		c2.6,1,5.9,1,8.8,0.3c1.3-0.7,5.2-2.3,6.5-2h0.7c1,0.3,1.6,1,2,2c1,2,0.7,3.9-1.3,4.9l-0.7,0.3c-7.2,4.2-14.7,3.6-21.8-0.3
		c-3.3-2-5.9-4.6-7.8-7.8l-0.3-0.7c-4.6-7.8-3.9-16.3,1.3-23.8c1.6-2.6,4.2-4.6,6.8-6.2l1-0.7c6.8-3.9,14-3.6,20.9-0.3
		c3.6,2,6.8,4.6,8.8,8.1l0.3,0.7c1.6,2.6-0.3,4.9-2.6,6.5l-6.8,5.9C355.7,71,350.8,75.3,345.9,79.5L345.9,79.5z M399.1,43.6h0.7
		c2.3,0,3.9,1.6,3.9,3.9c0,3.3-2.9,3.9-5.5,3.9c-3.3,0-6.5,2-8.8,4.2c-2.9,2.9-4.2,6.5-4.2,10.4v18.3c0,2-1.3,3.9-3.6,3.9h-0.7
		c-2.3,0-3.6-1.6-3.6-3.9V65.1c0-7.5,3.6-13.4,9.5-17.6C390.9,44.9,394.8,43.6,399.1,43.6L399.1,43.6z M305.9,56.3l8.8-8.8
		c1-0.7,3.9-4.2,5.2-4.2h1.3c1.6,0.3,2.9,1.3,2.9,3.3v0.7c0,1.3-1.6,2.6-2.3,3.6c-1.6,2-3.6,3.6-5.2,5.5l-9.1,9.1l11.7,11.7l3.3,3.3
		l1.3,1.3c0.3,0.7,0.7,1,0.7,1.6v1c-0.3,1.6-1.6,2.9-3.3,2.9h-0.7c-1.3,0-2.6-1.3-3.6-2.3c-1.6-1.6-3.6-3.3-5.2-5.2l-5.9-5.5v9.1
		c0,2-1.3,3.9-3.6,3.9h-0.7c-2.3,0-3.6-1.6-3.6-3.9V33.2c0-2,1.3-3.6,3.6-3.6h0.7c2.3,0,3.6,1.6,3.6,3.6V56.3z M281.7,51.5
		c-1-0.7-3.3-0.7-4.6-0.7c-6.2-0.3-10.8,3.3-13.4,8.8c-1,2-1.3,3.9-1.3,6.2c0,6.5,3.3,11.1,9.1,13.7c2,1,4.9,1.3,7.2,1.3
		c2,0,4.9-1.3,6.5-2h1.6c1.6,0.3,2.9,1.3,2.9,3.3v0.7c0,4.6-8.5,5.5-11.4,5.9c-11.1,0.7-19.6-5.5-22.8-16c-0.7-2-0.7-3.6-0.7-5.5
		v-1.6c0-8.1,3.9-14.7,11.1-18.6c3.3-2,6.8-2.9,10.8-2.9h1.6c3.9,0,7.8,1,11.1,3.3l0.3,0.3l0.3,0.3c0.3,0.7,0.7,1.3,0.7,2v0.7
		c0,2-1.3,2.9-3.3,3.3h-0.3C285,53.1,282.4,51.8,281.7,51.5L281.7,51.5z M213.3,65.5c0,5.5,2.9,9.8,7.5,12.7c2.3,1.3,4.9,2,7.5,2
		c5.5,0,9.8-2.9,12.7-7.5c1.3-2.3,2-4.9,2-7.5c0-5.2-2.6-9.5-6.8-12.4c-2.3-1.6-5.2-2.3-7.8-2.3c-6.2,0-10.8,3.3-13.4,8.8
		C213.3,61.6,213.3,63.5,213.3,65.5L213.3,65.5z M227,43.3h1c8.8,0,15.3,4.2,19.6,11.7c1.6,2.9,2.6,6.2,2.6,9.8v1.6
		c0,8.1-3.9,14.7-11.1,18.6c-3.3,2-6.8,2.9-10.8,2.9h-1.6c-8.1,0-14.7-3.9-18.6-11.1c-2-3.3-2.9-6.8-2.9-10.8v-1.6
		c0-8.1,3.9-14.7,11.1-18.6C219.8,44.3,223.1,43.3,227,43.3L227,43.3z M163.7,65.5c0,5.9,2.9,10.4,8.1,13c2,1,4.2,1.6,6.8,1.6
		c5.9,0,10.1-2.6,13-7.5c1.3-2.3,2-4.9,2-7.5c0-5.2-2.3-9.1-6.5-12.1c-2.6-1.6-5.2-2.6-8.5-2.6c-6.2,0-10.8,3.3-13.4,8.8
		C164.4,61.6,163.7,63.5,163.7,65.5L163.7,65.5z M193.7,48.9v-16c0-2,1.3-3.9,3.6-3.9h0.7c2.3,0,3.6,1.6,3.6,3.9v33.6
		c0,8.1-3.9,14.7-11.1,18.6c-3.3,2-6.8,2.9-10.8,2.9h-1.6c-8.1,0-14.7-3.9-18.6-11.1c-2-3.3-2.9-6.8-2.9-10.8v-1.6
		c0-8.1,3.9-14.7,11.1-18.6c3.3-2,6.8-2.9,10.8-2.9h1.6C184.9,43.3,189.8,45.3,193.7,48.9L193.7,48.9z"/>
</g>
</svg>
