<svg xmlns="http://www.w3.org/2000/svg" width="50.887" height="43.879" viewBox="0 0 50.887 43.879">
  <g id="Group_193" data-name="Group 193" transform="translate(1 1)">
    <path id="Path_168" data-name="Path 168" d="M307.908,382.045h-37.9a5.5,5.5,0,0,0-5.5,5.5V410.2a5.5,5.5,0,0,0,5.5,5.5h12.161a1.9,1.9,0,0,1,1.648.952l3.734,6.468a1.621,1.621,0,0,0,2.809,0l3.734-6.468a1.9,1.9,0,0,1,1.648-.952h12.161a5.5,5.5,0,0,0,5.5-5.5V387.541A5.5,5.5,0,0,0,307.908,382.045Z" transform="translate(-264.516 -382.045)" fill="none" stroke="#292929" stroke-miterlimit="10" stroke-width="2"/>
    <line id="Line_9" data-name="Line 9" x2="12.248" transform="translate(10.7 10.36)" fill="none" stroke="#292929" stroke-miterlimit="10" stroke-width="2"/>
    <line id="Line_10" data-name="Line 10" x2="27.488" transform="translate(10.7 17.05)" fill="none" stroke="#292929" stroke-miterlimit="10" stroke-width="2"/>
    <line id="Line_11" data-name="Line 11" x2="27.488" transform="translate(10.7 23.74)" fill="none" stroke="#292929" stroke-miterlimit="10" stroke-width="2"/>
  </g>
</svg>
