<svg xmlns="http://www.w3.org/2000/svg" width="37.643" height="44.522" viewBox="0 0 37.643 44.522">
  <g id="check_10_" data-name="check (10)" transform="translate(-39.552)">
    <g id="Group_480" data-name="Group 480" transform="translate(39.552)">
      <path id="Path_326" data-name="Path 326" d="M227.9,33.743h20.019a.651.651,0,0,0,0-1.3H227.9a.651.651,0,1,0,0,1.3Z" transform="translate(-210.93 -29.619)"/>
      <path id="Path_327" data-name="Path 327" d="M247.922,69.585H227.9a.651.651,0,1,0,0,1.3h20.019a.651.651,0,0,0,0-1.3Z" transform="translate(-210.93 -63.534)"/>
      <path id="Path_328" data-name="Path 328" d="M227.9,108.034h13.584a.651.651,0,1,0,0-1.3H227.9a.651.651,0,1,0,0,1.3Z" transform="translate(-210.93 -97.45)"/>
      <path id="Path_329" data-name="Path 329" d="M247.922,211.364H227.9a.651.651,0,1,0,0,1.3h20.019a.651.651,0,1,0,0-1.3Z" transform="translate(-210.93 -192.985)"/>
      <path id="Path_330" data-name="Path 330" d="M247.922,248.509H227.9a.651.651,0,0,0,0,1.3h20.019a.651.651,0,0,0,0-1.3Z" transform="translate(-210.93 -226.9)"/>
      <path id="Path_331" data-name="Path 331" d="M227.9,286.959h13.584a.651.651,0,1,0,0-1.3H227.9a.651.651,0,1,0,0,1.3Z" transform="translate(-210.93 -260.816)"/>
      <path id="Path_332" data-name="Path 332" d="M53.4,358.815a1.831,1.831,0,0,0-2.583.166l-.331.376a6.708,6.708,0,1,0,2.14,3.11l.94-1.068a1.83,1.83,0,0,0-.166-2.584ZM46.254,369.95a5.4,5.4,0,1,1,3.367-9.616l-2.759,3.136-.99-1.155a1.83,1.83,0,1,0-2.78,2.383l2.362,2.755a1.829,1.829,0,0,0,1.377.639h.013a1.831,1.831,0,0,0,1.374-.622l3.359-3.819a5.4,5.4,0,0,1-5.324,6.3Zm6.329-9.412-5.342,6.073a.528.528,0,0,1-.394.179h-.006a.527.527,0,0,1-.4-.184l-2.362-2.755a.528.528,0,0,1,.4-.871l.041,0a.525.525,0,0,1,.36.183l1.478,1.724a.651.651,0,0,0,.49.227.642.642,0,0,0,.493-.221l4.445-5.054a.528.528,0,0,1,.793.7Z" transform="translate(-39.552 -326.731)"/>
      <path id="Path_333" data-name="Path 333" d="M247.922,390.288H227.9a.651.651,0,1,0,0,1.3h20.019a.651.651,0,0,0,0-1.3Z" transform="translate(-210.93 -356.35)"/>
      <path id="Path_334" data-name="Path 334" d="M247.922,427.433H227.9a.651.651,0,1,0,0,1.3h20.019a.651.651,0,0,0,0-1.3Z" transform="translate(-210.93 -390.265)"/>
      <path id="Path_335" data-name="Path 335" d="M241.488,464.579H227.9a.651.651,0,1,0,0,1.3h13.584a.651.651,0,1,0,0-1.3Z" transform="translate(-210.93 -424.181)"/>
      <path id="Path_336" data-name="Path 336" d="M53.4.967a1.83,1.83,0,0,0-2.583.165l-.33.375a6.694,6.694,0,0,0-8.713.214.651.651,0,0,0,.872.968,5.391,5.391,0,0,1,6.98-.2L46.863,5.623l-.99-1.155a1.83,1.83,0,1,0-2.78,2.382l2.362,2.755a1.829,1.829,0,0,0,1.377.639h.013a1.831,1.831,0,0,0,1.374-.622L51.578,5.8a5.4,5.4,0,1,1-10.4-.959A.651.651,0,1,0,39.959,4.4a6.7,6.7,0,1,0,12.664.219l.938-1.067A1.83,1.83,0,0,0,53.4.967ZM52.583,2.69,47.241,8.763a.528.528,0,0,1-.394.179h-.006a.527.527,0,0,1-.4-.184L44.082,6a.528.528,0,0,1,.4-.871l.041,0a.524.524,0,0,1,.36.183L46.362,7.04a.651.651,0,0,0,.984.006l4.445-5.054a.528.528,0,0,1,.793.7Z" transform="translate(-39.552)"/>
      <path id="Path_337" data-name="Path 337" d="M53.4,179.891a1.831,1.831,0,0,0-2.583.166l-.331.376a6.693,6.693,0,1,0,2.141,3.109l.939-1.067a1.83,1.83,0,0,0-.165-2.583Zm-.813,1.723-2.771,3.15a.651.651,0,0,0,.978.86l.788-.9a5.412,5.412,0,1,1-1.957-3.319l-2.759,3.136-.99-1.155a1.83,1.83,0,1,0-2.78,2.382l2.362,2.755a1.829,1.829,0,0,0,1.377.639h.013a1.831,1.831,0,0,0,1.374-.621l.6-.688a.651.651,0,0,0-.978-.861l-.6.688a.528.528,0,0,1-.394.179h-.006a.527.527,0,0,1-.4-.184l-2.362-2.755a.529.529,0,0,1,.057-.744.528.528,0,0,1,.744.057l1.478,1.724a.651.651,0,0,0,.49.227h0a.651.651,0,0,0,.489-.221l4.445-5.054a.528.528,0,0,1,.793.7Z" transform="translate(-39.552 -163.365)"/>
    </g>
  </g>
</svg>
