<?xml version="1.0" encoding="utf-8"?>
<!-- Generator: Adobe Illustrator 22.1.0, SVG Export Plug-In . SVG Version: 6.00 Build 0)  -->
<svg version="1.1" id="Layer_1" xmlns="http://www.w3.org/2000/svg" xmlns:xlink="http://www.w3.org/1999/xlink" x="0px" y="0px"
	 viewBox="0 0 512 512" style="enable-background:new 0 0 512 512;" fill="#ffffff" stroke="#ffffff" xml:space="preserve">
<g>
	<title>crunchbase</title>
	<g>
		<path d="M436,31H76c-24.8,0.1-44.9,20.2-45,45V436c0.1,24.8,20.2,44.9,45,45H436c24.8-0.1,44.9-20.2,45-45V76
			C480.9,51.2,460.8,31.1,436,31z M163.1,302.2c19.8,9.1,43.3,0.3,52.4-19.6h31.1c-19.4,79.5-136.4,65.4-136.4-16.4
			c0-81.9,117-95.9,136.4-16.4h-31.1c-11.4-25.1-44.5-31.1-63.9-11.6C132,257.7,138,290.8,163.1,302.2L163.1,302.2z M375.8,318
			c-5.9,5.1-12.6,9.1-19.9,11.9c-21,8.1-44.7,5.5-63.5-7.2v7.2H264V131.7h28.1v77c10-6.8,21.7-10.8,33.8-11.8h5
			C395,196.8,424.4,276.5,375.8,318L375.8,318z M371.7,266.2c0.4,22.1-17.4,40.4-39.5,40.4c-22.1,0-39.9-18.2-39.4-40.4
			C293.9,214.8,370.5,214.8,371.7,266.2z"/>
	</g>
</g>
</svg>
