<svg xmlns="http://www.w3.org/2000/svg" width="55.313" height="41.639" viewBox="0 0 55.313 41.639">
  <g id="Group_194" data-name="Group 194" transform="translate(1 1)">
    <circle id="Ellipse_6" data-name="Ellipse 6" cx="4.592" cy="4.592" r="4.592" transform="translate(8.994 21.757)" fill="none" stroke="#292929" stroke-miterlimit="10" stroke-width="2"/>
    <path id="Path_169" data-name="Path 169" d="M554.265,408.867a4.6,4.6,0,1,1-4.593-4.593A4.592,4.592,0,0,1,554.265,408.867Z" transform="translate(-510.255 -382.517)" fill="none" stroke="#292929" stroke-miterlimit="10" stroke-width="2"/>
    <path id="Path_170" data-name="Path 170" d="M541.55,390.546h-.69v-.69a12.983,12.983,0,0,0-12.984-12.983h0a12.982,12.982,0,0,0-12.983,12.983v.69H514.2A12.983,12.983,0,0,0,501.22,403.53h0A12.983,12.983,0,0,0,514.2,416.512H541.55a12.983,12.983,0,0,0,12.983-12.983h0A12.983,12.983,0,0,0,541.55,390.546Z" transform="translate(-501.22 -376.873)" fill="none" stroke="#292929" stroke-miterlimit="10" stroke-width="2"/>
    <line id="Line_12" data-name="Line 12" x2="25.718" transform="translate(13.586 21.757)" fill="none" stroke="#292929" stroke-miterlimit="10" stroke-width="2"/>
    <line id="Line_13" data-name="Line 13" x2="25.718" transform="translate(13.586 30.941)" fill="none" stroke="#292929" stroke-miterlimit="10" stroke-width="2"/>
  </g>
</svg>
