<svg id="combine" xmlns="http://www.w3.org/2000/svg" width="37.644" height="37.644" viewBox="0 0 37.644 37.644">
  <path id="Path_338" data-name="Path 338" d="M36.908,7.94H29.7V.735A.735.735,0,0,0,28.968,0H.735A.735.735,0,0,0,0,.735V28.968a.735.735,0,0,0,.735.735H7.94v7.205a.735.735,0,0,0,.735.735H19.814a.735.735,0,1,0,0-1.47H9.411V29.641a.735.735,0,0,0-.294-1.409H1.47V1.47H28.233V8a.735.735,0,0,0,.294,1.409h7.646V36.173H25.733a.735.735,0,1,0,0,1.47H36.908a.735.735,0,0,0,.735-.735V8.676A.735.735,0,0,0,36.908,7.94Zm0,0"/>
  <path id="Path_339" data-name="Path 339" d="M384,333.176a.735.735,0,1,0,1.47,0v-.441a.735.735,0,1,0-1.47,0Zm0,0" transform="translate(-355.767 -307.591)"/>
  <path id="Path_340" data-name="Path 340" d="M384,241.176a.735.735,0,1,0,1.47,0v-.441a.735.735,0,1,0-1.47,0Zm0,0" transform="translate(-355.767 -222.355)"/>
  <path id="Path_341" data-name="Path 341" d="M384.735,149.912a.735.735,0,0,0,.735-.735v-.441a.735.735,0,1,0-1.47,0v.441A.735.735,0,0,0,384.735,149.912Zm0,0" transform="translate(-355.767 -137.119)"/>
  <path id="Path_342" data-name="Path 342" d="M384,287.176a.735.735,0,1,0,1.47,0v-.441a.735.735,0,1,0-1.47,0Zm0,0" transform="translate(-355.767 -264.973)"/>
  <path id="Path_343" data-name="Path 343" d="M287.176,109.47a.735.735,0,1,0,0-1.47h-.441a.735.735,0,1,0,0,1.47Zm0,0" transform="translate(-264.973 -100.06)"/>
  <path id="Path_344" data-name="Path 344" d="M293.176,385.47a.735.735,0,1,0,0-1.47h-.441a.735.735,0,1,0,0,1.47Zm0,0" transform="translate(-270.531 -355.767)"/>
  <path id="Path_345" data-name="Path 345" d="M384,379.176a.735.735,0,1,0,1.47,0v-.441a.735.735,0,1,0-1.47,0Zm0,0" transform="translate(-355.767 -350.208)"/>
  <path id="Path_346" data-name="Path 346" d="M333.176,109.47a.735.735,0,1,0,0-1.47h-.441a.735.735,0,1,0,0,1.47Zm0,0" transform="translate(-307.591 -100.06)"/>
  <path id="Path_347" data-name="Path 347" d="M338.735,385.47h.441a.735.735,0,0,0,0-1.47h-.441a.735.735,0,0,0,0,1.47Zm0,0" transform="translate(-313.149 -355.767)"/>
  <path id="Path_348" data-name="Path 348" d="M384,195.176a.735.735,0,1,0,1.47,0v-.441a.735.735,0,1,0-1.47,0Zm0,0" transform="translate(-355.767 -179.737)"/>
  <path id="Path_349" data-name="Path 349" d="M195.176,109.47a.735.735,0,1,0,0-1.47h-.441a.735.735,0,1,0,0,1.47Zm0,0" transform="translate(-179.737 -100.06)"/>
  <path id="Path_350" data-name="Path 350" d="M109.47,200.735a.735.735,0,0,0-1.47,0v.441a.735.735,0,0,0,1.47,0Zm0,0" transform="translate(-100.06 -185.295)"/>
  <path id="Path_351" data-name="Path 351" d="M109.47,246.735a.735.735,0,1,0-1.47,0v.441a.735.735,0,1,0,1.47,0Zm0,0" transform="translate(-100.06 -227.913)"/>
  <path id="Path_352" data-name="Path 352" d="M109.47,108.735a.735.735,0,0,0-1.47,0v.441a.735.735,0,0,0,1.47,0Zm0,0" transform="translate(-100.06 -100.06)"/>
  <path id="Path_353" data-name="Path 353" d="M109.47,154.735a.735.735,0,1,0-1.47,0v.441a.735.735,0,1,0,1.47,0Zm0,0" transform="translate(-100.06 -142.678)"/>
  <path id="Path_354" data-name="Path 354" d="M108.735,338a.735.735,0,0,0-.735.735v.441a.735.735,0,0,0,1.47,0v-.441A.735.735,0,0,0,108.735,338Zm0,0" transform="translate(-100.06 -313.149)"/>
  <path id="Path_355" data-name="Path 355" d="M109.47,292.735a.735.735,0,1,0-1.47,0v.441a.735.735,0,1,0,1.47,0Zm0,0" transform="translate(-100.06 -270.531)"/>
  <path id="Path_356" data-name="Path 356" d="M200.735,385.47h.441a.735.735,0,1,0,0-1.47h-.441a.735.735,0,1,0,0,1.47Zm0,0" transform="translate(-185.295 -355.767)"/>
  <path id="Path_357" data-name="Path 357" d="M246.735,385.47h.441a.735.735,0,1,0,0-1.47h-.441a.735.735,0,1,0,0,1.47Zm0,0" transform="translate(-227.913 -355.767)"/>
  <path id="Path_358" data-name="Path 358" d="M241.176,109.47a.735.735,0,1,0,0-1.47h-.441a.735.735,0,1,0,0,1.47Zm0,0" transform="translate(-222.355 -100.06)"/>
  <path id="Path_359" data-name="Path 359" d="M149.176,109.47a.735.735,0,0,0,0-1.47h-.441a.735.735,0,0,0,0,1.47Zm0,0" transform="translate(-137.119 -100.06)"/>
  <path id="Path_360" data-name="Path 360" d="M154.735,385.47h.441a.735.735,0,1,0,0-1.47h-.441a.735.735,0,1,0,0,1.47Zm0,0" transform="translate(-142.678 -355.767)"/>
  <path id="Path_361" data-name="Path 361" d="M300.735,492a.735.735,0,1,0,.52.215A.741.741,0,0,0,300.735,492Zm0,0" transform="translate(-277.943 -455.827)"/>
</svg>
