<?xml version="1.0" encoding="utf-8"?>
<!-- Generator: Adobe Illustrator 18.0.0, SVG Export Plug-In . SVG Version: 6.00 Build 0)  -->
<!DOCTYPE svg PUBLIC "-//W3C//DTD SVG 1.1//EN" "http://www.w3.org/Graphics/SVG/1.1/DTD/svg11.dtd">
<svg version="1.1" id="Layer_1" xmlns="http://www.w3.org/2000/svg" xmlns:xlink="http://www.w3.org/1999/xlink" x="0px" y="0px"
	 viewBox="43 0 204.5 131.7" enable-background="new 43 0 204.5 131.7" xml:space="preserve">
<g id="Group_180" transform="translate(-954.897 -844.568)">
	<path id="Path_153" fill="none" stroke="#FFFFFF" stroke-width="9.799" stroke-miterlimit="10" d="M1165.3,912.9
		c0,16.8-13.6,30.5-30.5,30.5c-16.8,0-30.5-13.6-30.5-30.5c0-16.8,13.6-30.5,30.5-30.5l0,0"/>
	<g id="Group_179">
		<g id="Group_177">
			<path id="Path_154" d="M1198.6,887.3v-9.9c-15.7,0-28.5,12.8-28.5,28.5h9.9C1180,895.7,1188.4,887.3,1198.6,887.3z"/>
		</g>
		<g id="Group_178">
			<path id="Path_155" d="M1141.6,877.5v9.9c10.3,0,18.6,8.3,18.6,18.6h9.9C1170.1,890.2,1157.4,877.5,1141.6,877.5z"/>
		</g>
	</g>
	
		<circle id="Ellipse_4" fill="none" stroke="#FFFFFF" stroke-width="9.799" stroke-miterlimit="10" cx="1036.7" cy="912.9" r="30.5"/>
	<path id="Path_156" fill="none" stroke="#FFFFFF" stroke-width="9.799" stroke-miterlimit="10" d="M1066.8,917.8
		c0.1-10.5,8.6-19,19.2-19.1c10.4,0.1,18.8,8.6,18.8,19.1"/>
</g>
</svg>
