<?xml version="1.0" encoding="utf-8"?>
<!-- Generator: Adobe Illustrator 18.0.0, SVG Export Plug-In . SVG Version: 6.00 Build 0)  -->
<!DOCTYPE svg PUBLIC "-//W3C//DTD SVG 1.1//EN" "http://www.w3.org/Graphics/SVG/1.1/DTD/svg11.dtd">
<svg version="1.1" id="Layer_1" xmlns="http://www.w3.org/2000/svg" xmlns:xlink="http://www.w3.org/1999/xlink" x="0px" y="0px"
	 viewBox="63 0 184.5 131.7" enable-background="new 63 0 184.5 131.7" xml:space="preserve">
<g id="Group_185" transform="translate(-1653.402 -381.406)">
	<path id="Path_164" fill="none" stroke="#000000" stroke-width="9.799" d="M1663.9,510.4"/>
	<g id="Group_190" transform="translate(180 12.219)">
		<g id="Group_189">
			<path id="Path_157" fill="none" stroke="#000000" stroke-width="9.938" stroke-miterlimit="10" d="M1694,434.5"/>
			<path id="Path_158" fill="none" stroke="#FFFFFF" stroke-width="9.799" stroke-miterlimit="10" d="M1652.3,414.2v-6.3
				c0-18.7-15.1-33.8-33.8-33.8s-33.8,15.1-33.8,33.8c0,0.4,0,0.9,0,1.3h-12.3c-15.6,0-28.3,12.7-28.3,28.3v0l0,0
				c0,15.6,12.7,28.3,28.3,28.3l0,0h21.5"/>
			<path id="Path_159" fill="none" stroke="#FFFFFF" stroke-width="9.799" stroke-miterlimit="10" d="M1687.7,438.7
				c0,15.6-12.7,27.2-28.3,27.2"/>
			<path id="Path_160" fill="none" stroke="#000000" stroke-width="9.938" stroke-miterlimit="10" d="M1694,434.5"/>
			<g id="Group_188">
				<g id="Group_186">
					<path id="Path_161" d="M1720.9,414.2v-9.8c-15.6,0-28.3,12.7-28.3,28.3h9.8C1702.4,422.5,1710.6,414.2,1720.9,414.2z"/>
				</g>
				<g id="Group_187">
					<path id="Path_162" d="M1664.2,404.4v9.8c10.2,0,18.5,8.3,18.5,18.5h9.8C1692.5,417.1,1679.8,404.4,1664.2,404.4z"/>
				</g>
			</g>
		</g>
		
			<line id="Line_6" fill="none" stroke="#FFFFFF" stroke-width="9.799" stroke-miterlimit="10" x1="1636.8" y1="471.4" x2="1662.9" y2="497.4"/>
		<path id="Path_163" fill="none" stroke="#FFFFFF" stroke-width="9.799" d="M1620.5,424.5c15.2,0,27.6,12.3,27.6,27.6
			s-12.3,27.6-27.6,27.6c-15.2,0-27.6-12.3-27.6-27.6C1593,436.8,1605.3,424.5,1620.5,424.5z"/>
	</g>
</g>
</svg>
