<svg xmlns="http://www.w3.org/2000/svg" width="23.85" height="14.272" viewBox="0 0 23.85 14.272">
  <g id="Group_315" data-name="Group 315" transform="translate(-1932.273 7094.285)">
    <g id="Group_313" data-name="Group 313" transform="translate(1932.273 -7094.285)">
      <path id="Path_211" data-name="Path 211" d="M1944.2-7080.013a13.5,13.5,0,0,1-6.853-1.864,13.586,13.586,0,0,1-4.852-4.892l-.22-.379.22-.38a13.586,13.586,0,0,1,4.852-4.892,13.5,13.5,0,0,1,6.853-1.865,13.5,13.5,0,0,1,6.853,1.865,13.586,13.586,0,0,1,4.852,4.892l.22.38-.22.379a13.586,13.586,0,0,1-4.852,4.892A13.5,13.5,0,0,1,1944.2-7080.013Zm-10.164-7.136a12.077,12.077,0,0,0,4.081,3.965,11.981,11.981,0,0,0,6.083,1.654,11.981,11.981,0,0,0,6.083-1.654,12.076,12.076,0,0,0,4.081-3.965,12.073,12.073,0,0,0-4.081-3.966,11.986,11.986,0,0,0-6.083-1.654,11.986,11.986,0,0,0-6.083,1.654A12.074,12.074,0,0,0,1934.034-7087.148Z" transform="translate(-1932.273 7094.285)" fill="#c1c1c1"/>
    </g>
    <g id="Group_314" data-name="Group 314" transform="translate(1940.18 -7091.167)">
      <path id="Path_212" data-name="Path 212" d="M2092.716-7024.565a4.023,4.023,0,0,1-4.018-4.019,4.023,4.023,0,0,1,4.018-4.018,4.023,4.023,0,0,1,4.019,4.018A4.023,4.023,0,0,1,2092.716-7024.565Zm0-6.521a2.5,2.5,0,0,0-2.5,2.5,2.5,2.5,0,0,0,2.5,2.5,2.505,2.505,0,0,0,2.5-2.5A2.505,2.505,0,0,0,2092.716-7031.086Z" transform="translate(-2088.698 7032.602)" fill="#c1c1c1"/>
    </g>
  </g>
</svg>
