<svg xmlns="http://www.w3.org/2000/svg" width="28.016" height="28.016" viewBox="0 0 28.016 28.016">
  <path id="Path_217" data-name="Path 217" d="M222.266,707.33a3.425,3.425,0,0,1,3.423,3.423v21.17a3.425,3.425,0,0,1-3.423,3.423H216.44V724.79h3.644l.693-4.52H216.44v-2.935a2.26,2.26,0,0,1,2.549-2.442h1.971v-3.849a24.028,24.028,0,0,0-3.5-.305c-3.572,0-5.908,2.166-5.908,6.086v3.446h-3.97v4.52h3.97v10.556H201.1a3.425,3.425,0,0,1-3.423-3.423v-21.17a3.425,3.425,0,0,1,3.423-3.423Z" transform="translate(-197.673 -707.33)" fill-rule="evenodd"/>
</svg>
