<svg xmlns="http://www.w3.org/2000/svg" width="33.069" height="28.837" viewBox="0 0 33.069 28.837">
  <g id="Group_379" data-name="Group 379" transform="translate(5262.518 5653.381) rotate(-90)">
    <g id="Group_377" data-name="Group 377" transform="translate(5624.544 -5261.518)">
      <path id="Path_238" data-name="Path 238" d="M5624.544-5245.984a5.5,5.5,0,0,0,5.5-5.5v-4.534a5.5,5.5,0,0,1,5.5-5.5" transform="translate(-5624.544 5261.518)" fill="none" stroke="#000" stroke-miterlimit="10" stroke-width="2"/>
      <path id="Path_239" data-name="Path 239" d="M5624.544-5122.1a5.5,5.5,0,0,1,5.5,5.5v4.534a5.5,5.5,0,0,0,5.5,5.5" transform="translate(-5624.544 5137.635)" fill="none" stroke="#000" stroke-miterlimit="10" stroke-width="2"/>
    </g>
    <g id="Group_378" data-name="Group 378" transform="translate(5637.47 -5258.98)">
      <circle id="Ellipse_27" data-name="Ellipse 27" cx="2.895" cy="2.895" r="2.895" transform="translate(0)" fill="none" stroke="#000" stroke-miterlimit="10" stroke-width="2"/>
      <circle id="Ellipse_28" data-name="Ellipse 28" cx="2.895" cy="2.895" r="2.895" transform="translate(0 10.101)" fill="none" stroke="#000" stroke-miterlimit="10" stroke-width="2"/>
      <circle id="Ellipse_29" data-name="Ellipse 29" cx="2.895" cy="2.895" r="2.895" transform="translate(0 20.202)" fill="none" stroke="#000" stroke-miterlimit="10" stroke-width="2"/>
    </g>
    <g id="Group_381" data-name="Group 381" transform="translate(5646.591 -5258.98)">
      <circle id="Ellipse_27-2" data-name="Ellipse 27" cx="2.895" cy="2.895" r="2.895" transform="translate(0)" fill="none" stroke="#000" stroke-miterlimit="10" stroke-width="2"/>
      <circle id="Ellipse_28-2" data-name="Ellipse 28" cx="2.895" cy="2.895" r="2.895" transform="translate(0 10.101)" fill="none" stroke="#000" stroke-miterlimit="10" stroke-width="2"/>
      <circle id="Ellipse_29-2" data-name="Ellipse 29" cx="2.895" cy="2.895" r="2.895" transform="translate(0 20.202)" fill="none" stroke="#000" stroke-miterlimit="10" stroke-width="2"/>
    </g>
  </g>
</svg>
