<svg xmlns="http://www.w3.org/2000/svg" width="20.32" height="20.073" viewBox="0 0 20.32 20.073">
  <g id="Group_206" data-name="Group 206" transform="translate(-1034.653 -245.198)">
    <path id="Path_181" data-name="Path 181" d="M1054.4,256.327a8.768,8.768,0,0,0,0-2.185l-2.941-.873a6.636,6.636,0,0,0-.539-1.289l1.453-2.667a9.772,9.772,0,0,0-1.568-1.548l-2.7,1.436a6.965,6.965,0,0,0-1.307-.532l-.882-2.9a9.129,9.129,0,0,0-2.214,0l-.882,2.9a6.72,6.72,0,0,0-1.307.533l-2.7-1.436a9.633,9.633,0,0,0-1.567,1.548l1.454,2.664a6.738,6.738,0,0,0-.539,1.29l-2.942.873a8.784,8.784,0,0,0,0,2.185l2.941.871a6.719,6.719,0,0,0,.539,1.291l-1.454,2.666a9.675,9.675,0,0,0,1.568,1.548l2.7-1.435a6.919,6.919,0,0,0,1.307.532l.882,2.9a9.129,9.129,0,0,0,2.214,0l.882-2.9a6.935,6.935,0,0,0,1.307-.532l2.7,1.435a9.738,9.738,0,0,0,1.568-1.549l-1.452-2.666a6.722,6.722,0,0,0,.539-1.29Z" fill="none" stroke="#9b9b9b" stroke-miterlimit="10" stroke-width="1"/>
    <circle id="Ellipse_14" data-name="Ellipse 14" cx="2.9" cy="2.9" r="2.9" transform="translate(1040.712 255.234) rotate(-45)" fill="none" stroke="#9b9b9b" stroke-miterlimit="10" stroke-width="1"/>
  </g>
</svg>
