<svg xmlns="http://www.w3.org/2000/svg" width="51.044" height="46.012" viewBox="0 0 51.044 46.012">
  <g id="Group_388" data-name="Group 388" transform="translate(0.707 1.415)">
    <path id="Path_250" data-name="Path 250" d="M204.5,270.741h-.473v-.473a8.9,8.9,0,0,0-8.9-8.9h0a8.9,8.9,0,0,0-8.9,8.9v.473h-.473a8.9,8.9,0,0,0-8.9,8.9h0a8.9,8.9,0,0,0,8.9,8.9H204.5a8.9,8.9,0,0,0,8.9-8.9h0A8.9,8.9,0,0,0,204.5,270.741Z" transform="translate(-170.697 -244.936)" fill="none" stroke="#000" stroke-miterlimit="10" stroke-width="2"/>
    <path id="Path_251" data-name="Path 251" d="M215.158,255.979l-8.543-8.543V236.98h-5.7v4.752l-10.569-10.568-24.815,24.815" transform="translate(-165.528 -231.164)" fill="none" stroke="#000" stroke-miterlimit="10" stroke-width="2"/>
  </g>
</svg>
