<svg xmlns="http://www.w3.org/2000/svg" width="35.383" height="43.443" viewBox="0 0 35.383 43.443">
  <g id="Group_420" data-name="Group 420" transform="translate(-794 -4576.493)">
    <path id="Path_255" data-name="Path 255" d="M590.5,279.94h-.2v-.2a3.833,3.833,0,0,0-3.834-3.833h0a3.833,3.833,0,0,0-3.833,3.833v.2h-.2a3.833,3.833,0,0,0-3.833,3.834h0a3.833,3.833,0,0,0,3.833,3.833H590.5a3.93,3.93,0,0,0,3.684-2.77,3.317,3.317,0,0,0,.149-1.063h0A3.833,3.833,0,0,0,590.5,279.94Z" transform="translate(225.318 4325.133)" fill="none" stroke="#000" stroke-miterlimit="10" stroke-width="2"/>
    <rect id="Rectangle_2239" data-name="Rectangle 2239" width="33.383" height="23.519" transform="translate(795 4595.417)" fill="none" stroke="#000" stroke-miterlimit="10" stroke-width="2"/>
    <path id="Path_256" data-name="Path 256" d="M575.57,249.267v-8.753a9.455,9.455,0,0,1,9.455-9.455h0a9.455,9.455,0,0,1,9.455,9.455v8.753" transform="translate(226.752 4346.434)" fill="none" stroke="#000" stroke-miterlimit="10" stroke-width="2"/>
  </g>
</svg>
