<svg xmlns="http://www.w3.org/2000/svg" width="60.891" height="59.105" viewBox="0 0 60.891 59.105">
  <g id="Group_412" data-name="Group 412" transform="translate(1 1)">
    <ellipse id="Ellipse_58" data-name="Ellipse 58" cx="10.841" cy="10.841" rx="10.841" ry="10.841" transform="translate(18.077 13.674)" fill="none" stroke="#000" stroke-miterlimit="10" stroke-width="2"/>
    <ellipse id="Ellipse_59" data-name="Ellipse 59" cx="6.8" cy="6.8" rx="6.8" ry="6.8" transform="translate(5.513 0)" fill="none" stroke="#000" stroke-miterlimit="10" stroke-width="2"/>
    <path id="Path_269" data-name="Path 269" d="M874.833,163.811a6.8,6.8,0,1,1-6.8-6.8A6.8,6.8,0,0,1,874.833,163.811Z" transform="translate(-815.942 -157.011)" fill="none" stroke="#000" stroke-miterlimit="10" stroke-width="2"/>
    <ellipse id="Ellipse_60" data-name="Ellipse 60" cx="6.8" cy="6.8" rx="6.8" ry="6.8" transform="translate(22.719 43.504)" fill="none" stroke="#000" stroke-miterlimit="10" stroke-width="2"/>
    <line id="Line_41" data-name="Line 41" y1="7.255" x2="8.994" transform="translate(37.9 11.188)" fill="none" stroke="#000" stroke-miterlimit="10" stroke-width="2"/>
    <line id="Line_42" data-name="Line 42" x1="4.707" y1="4.747" transform="translate(16.491 12.158)" fill="none" stroke="#000" stroke-miterlimit="10" stroke-width="2"/>
    <line id="Line_43" data-name="Line 43" y1="8.149" transform="translate(29.519 35.355)" fill="none" stroke="#000" stroke-miterlimit="10" stroke-width="2"/>
    <ellipse id="Ellipse_61" data-name="Ellipse 61" cx="2.688" cy="2.688" rx="2.688" ry="2.688" transform="translate(0 35.879)" fill="none" stroke="#000" stroke-miterlimit="10" stroke-width="2"/>
    <line id="Line_44" data-name="Line 44" x1="14.036" y2="8.201" transform="translate(5.077 29.147)" fill="none" stroke="#000" stroke-miterlimit="10" stroke-width="2"/>
  </g>
</svg>
