<svg xmlns="http://www.w3.org/2000/svg" width="45.92" height="41.124" viewBox="0 0 45.92 41.124">
  <g id="Group_389" data-name="Group 389" transform="translate(1 1)">
    <path id="Path_252" data-name="Path 252" d="M323.838,246.4l3.56,3.559a9.137,9.137,0,0,0,12.922,0h0a9.137,9.137,0,0,0,0-12.922h0a9.137,9.137,0,0,0-12.922,0l-12.724,12.724a9.138,9.138,0,0,1-12.922,0h0a9.138,9.138,0,0,1,0-12.922h0a9.138,9.138,0,0,1,12.922,0l3.559,3.56" transform="translate(-299.077 -234.168)" fill="none" stroke="#000" stroke-miterlimit="10" stroke-width="2"/>
    <line id="Line_33" data-name="Line 33" x2="31.512" transform="translate(11.51 25.668)" fill="none" stroke="#000" stroke-miterlimit="10" stroke-width="2"/>
    <line id="Line_34" data-name="Line 34" x2="41.657" transform="translate(1.364 32.396)" fill="none" stroke="#000" stroke-miterlimit="10" stroke-width="2"/>
    <line id="Line_35" data-name="Line 35" x2="41.657" transform="translate(1.364 39.124)" fill="none" stroke="#000" stroke-miterlimit="10" stroke-width="2"/>
    <path id="Path_253" data-name="Path 253" d="M346.76,252.375" transform="translate(-322.572 -243.139)" fill="none" stroke="#000" stroke-miterlimit="10" stroke-width="2"/>
  </g>
</svg>
