<svg xmlns="http://www.w3.org/2000/svg" width="48.483" height="49.059" viewBox="0 0 48.483 49.059">
  <g id="Group_390" data-name="Group 390" transform="translate(1 1)">
    <path id="Path_254" data-name="Path 254" d="M468.732,250h-.6v-.6a11.32,11.32,0,0,0-11.32-11.32h0a11.32,11.32,0,0,0-11.32,11.32v.6h-.6a11.32,11.32,0,0,0-11.32,11.32h0a11.32,11.32,0,0,0,11.32,11.32h23.843a11.32,11.32,0,0,0,11.32-11.32h0A11.32,11.32,0,0,0,468.732,250Z" transform="translate(-433.569 -238.083)" fill="none" stroke="#000" stroke-miterlimit="10" stroke-width="2"/>
    <ellipse id="Ellipse_40" data-name="Ellipse 40" cx="9.561" cy="9.561" rx="9.561" ry="9.561" transform="translate(13.474 24.588)" fill="none" stroke="#000" stroke-miterlimit="10" stroke-width="2"/>
    <line id="Line_36" data-name="Line 36" x1="6.443" y1="6.443" transform="translate(29.796 40.909)" fill="none" stroke="#000" stroke-miterlimit="10" stroke-width="2"/>
  </g>
</svg>
