<svg xmlns="http://www.w3.org/2000/svg" width="886.351" height="491.637" viewBox="0 0 886.351 491.637">
  <g id="hit-the-road" transform="translate(0 0.006)">
    <circle id="Ellipse_112" data-name="Ellipse 112" cx="50.763" cy="50.763" r="50.763" transform="translate(181.633 52.484)" fill="#ff6584"/>
    <path id="Path_1556" data-name="Path 1556" d="M548.406,463.863H299.38a5.077,5.077,0,0,1-.931-.074L416.227,259.78a8.247,8.247,0,0,1,14.355,0l79.044,136.906,3.787,6.551Z" transform="translate(-156.824 -204.184)" fill="#3f3d56"/>
    <path id="Path_1557" data-name="Path 1557" d="M391.582,259.678H306.558L348.3,199.052l3-4.367,1.5-2.183,3.787,6.55Z" opacity="0.2"/>
    <path id="Path_1558" data-name="Path 1558" d="M687.063,463.863H471.675l41.738-60.626,3-4.367L570.8,319.863c3.566-5.178,12.144-5.5,16.336-.977a9.828,9.828,0,0,1,.783.977Z" transform="translate(-156.824 -204.184)" fill="#3f3d56"/>
    <circle id="Ellipse_113" data-name="Ellipse 113" cx="15.296" cy="15.296" r="15.296" transform="translate(578.167 195.523)" fill="#007fff"/>
    <path id="Path_1559" data-name="Path 1559" d="M594.938,256.894H591.8l1.428-48.378Z" fill="#3f3d56"/>
    <path id="Path_1560" data-name="Path 1560" d="M593.509,217.685l3.364-4.654-3.41,5.806-.368-.645Z" fill="#3f3d56"/>
    <path id="Path_1561" data-name="Path 1561" d="M593.141,222.384l-3.364-4.653,3.41,5.8.368-.645Z" fill="#3f3d56"/>
    <circle id="Ellipse_114" data-name="Ellipse 114" cx="15.296" cy="15.296" r="15.296" transform="translate(718.484 195.523)" fill="#007fff"/>
    <path id="Path_1562" data-name="Path 1562" d="M735.254,256.894h-3.133l1.429-48.378Z" fill="#3f3d56"/>
    <path id="Path_1563" data-name="Path 1563" d="M733.826,217.685l3.364-4.654-3.41,5.806-.369-.645Z" fill="#3f3d56"/>
    <path id="Path_1564" data-name="Path 1564" d="M733.458,222.384l-3.364-4.653,3.41,5.8.368-.645Z" fill="#3f3d56"/>
    <circle id="Ellipse_115" data-name="Ellipse 115" cx="22.592" cy="22.592" r="22.592" transform="translate(615.183 166.255)" fill="#007fff"/>
    <path id="Path_1565" data-name="Path 1565" d="M639.952,256.894h-4.627l2.109-71.45Z" fill="#3f3d56"/>
    <path id="Path_1566" data-name="Path 1566" d="M637.843,198.985l4.967-6.872-5.035,8.574-.545-.953Z" fill="#3f3d56"/>
    <path id="Path_1567" data-name="Path 1567" d="M637.3,205.926l-4.967-6.872,5.035,8.573.545-.952Z" fill="#3f3d56"/>
    <circle id="Ellipse_116" data-name="Ellipse 116" cx="22.592" cy="22.592" r="22.592" transform="translate(670.277 166.255)" fill="#007fff"/>
    <path id="Path_1568" data-name="Path 1568" d="M695.046,256.894h-4.627l2.109-71.45Z" fill="#3f3d56"/>
    <path id="Path_1569" data-name="Path 1569" d="M692.936,198.985l4.968-6.872-5.036,8.574-.544-.953Z" fill="#3f3d56"/>
    <path id="Path_1570" data-name="Path 1570" d="M692.392,205.926l-4.968-6.872,5.036,8.573.544-.952Z" fill="#3f3d56"/>
    <circle id="Ellipse_117" data-name="Ellipse 117" cx="22.592" cy="22.592" r="22.592" transform="translate(527.377 166.255)" fill="#007fff"/>
    <path id="Path_1571" data-name="Path 1571" d="M552.146,256.894h-4.627l2.11-71.45Z" fill="#3f3d56"/>
    <path id="Path_1572" data-name="Path 1572" d="M550.037,198.985,555,192.113l-5.035,8.574-.544-.953Z" fill="#3f3d56"/>
    <path id="Path_1573" data-name="Path 1573" d="M549.493,205.926l-4.968-6.872,5.036,8.573.544-.952Z" fill="#3f3d56"/>
    <path id="Path_1574" data-name="Path 1574" d="M974.074,695.816H236.808a70.734,70.734,0,0,1,0-141.468H972.442a27.205,27.205,0,0,0,0-54.411H212.323V456.408H972.442a70.734,70.734,0,0,1,0,141.468H236.808a27.205,27.205,0,0,0,0,54.411H974.074Z" transform="translate(-156.824 -204.184)" fill="#e6e6e6"/>
    <rect id="Rectangle_404" data-name="Rectangle 404" width="33.735" height="2.176" transform="translate(82.704 272.9)" fill="#fff"/>
    <rect id="Rectangle_405" data-name="Rectangle 405" width="33.735" height="2.176" transform="translate(178.467 272.9)" fill="#fff"/>
    <rect id="Rectangle_406" data-name="Rectangle 406" width="33.735" height="2.176" transform="translate(274.23 272.9)" fill="#fff"/>
    <rect id="Rectangle_407" data-name="Rectangle 407" width="33.735" height="2.176" transform="translate(369.993 272.9)" fill="#fff"/>
    <rect id="Rectangle_408" data-name="Rectangle 408" width="33.735" height="2.176" transform="translate(465.756 272.9)" fill="#fff"/>
    <rect id="Rectangle_409" data-name="Rectangle 409" width="33.735" height="2.176" transform="translate(561.519 272.9)" fill="#fff"/>
    <rect id="Rectangle_410" data-name="Rectangle 410" width="33.735" height="2.176" transform="translate(657.282 272.9)" fill="#fff"/>
    <rect id="Rectangle_411" data-name="Rectangle 411" width="33.735" height="2.176" transform="translate(753.045 272.9)" fill="#fff"/>
    <rect id="Rectangle_412" data-name="Rectangle 412" width="33.735" height="2.176" transform="translate(82.704 370.839)" fill="#fff"/>
    <rect id="Rectangle_413" data-name="Rectangle 413" width="33.735" height="2.176" transform="translate(178.467 370.839)" fill="#fff"/>
    <rect id="Rectangle_414" data-name="Rectangle 414" width="33.735" height="2.176" transform="translate(274.23 370.839)" fill="#fff"/>
    <rect id="Rectangle_415" data-name="Rectangle 415" width="33.735" height="2.176" transform="translate(369.993 370.839)" fill="#fff"/>
    <rect id="Rectangle_416" data-name="Rectangle 416" width="33.735" height="2.176" transform="translate(465.756 370.839)" fill="#fff"/>
    <rect id="Rectangle_417" data-name="Rectangle 417" width="33.735" height="2.176" transform="translate(561.519 370.839)" fill="#fff"/>
    <rect id="Rectangle_418" data-name="Rectangle 418" width="33.735" height="2.176" transform="translate(657.282 370.839)" fill="#fff"/>
    <rect id="Rectangle_419" data-name="Rectangle 419" width="33.735" height="2.176" transform="translate(753.045 370.839)" fill="#fff"/>
    <rect id="Rectangle_420" data-name="Rectangle 420" width="33.735" height="2.176" transform="translate(82.704 468.779)" fill="#fff"/>
    <rect id="Rectangle_421" data-name="Rectangle 421" width="33.735" height="2.176" transform="translate(178.467 468.779)" fill="#fff"/>
    <rect id="Rectangle_422" data-name="Rectangle 422" width="33.735" height="2.176" transform="translate(274.23 468.779)" fill="#fff"/>
    <rect id="Rectangle_423" data-name="Rectangle 423" width="33.735" height="2.176" transform="translate(369.993 468.779)" fill="#fff"/>
    <rect id="Rectangle_424" data-name="Rectangle 424" width="33.735" height="2.176" transform="translate(465.756 468.779)" fill="#fff"/>
    <rect id="Rectangle_425" data-name="Rectangle 425" width="33.735" height="2.176" transform="translate(561.519 468.779)" fill="#fff"/>
    <rect id="Rectangle_426" data-name="Rectangle 426" width="33.735" height="2.176" transform="translate(657.282 468.779)" fill="#fff"/>
    <rect id="Rectangle_427" data-name="Rectangle 427" width="33.735" height="2.176" transform="translate(753.045 468.779)" fill="#fff"/>
    <path id="Path_1575" data-name="Path 1575" d="M732.01,298.879a28.991,28.991,0,0,0-6.045-5.7h12.624a21.114,21.114,0,0,0-6.579,5.7Z" transform="translate(-156.824 -204.184)" fill="none"/>
    <path id="Path_1576" data-name="Path 1576" d="M690.743,293.176h2.176c-.468.328-.936.655-1.383,1.01C691.281,293.842,691.009,293.511,690.743,293.176Z" transform="translate(-156.824 -204.184)" fill="none"/>
    <path id="Path_1577" data-name="Path 1577" d="M748.692,290.559a20.833,20.833,0,0,1,10.129,2.617H738.589A20.742,20.742,0,0,1,748.692,290.559Z" transform="translate(-156.824 -204.184)" fill="#e6e6e6"/>
    <path id="Path_1578" data-name="Path 1578" d="M709.431,287.941a28.623,28.623,0,0,1,16.534,5.235H692.919A28.616,28.616,0,0,1,709.431,287.941Z" transform="translate(-156.824 -204.184)" fill="#e6e6e6"/>
    <path id="Path_1579" data-name="Path 1579" d="M487.036,254.807A53.656,53.656,0,0,1,592.31,243.495c.65-.023,1.3-.049,1.955-.049a53.666,53.666,0,0,1,51.479,38.529,37.92,37.92,0,0,1,45,11.2H523.371A36.293,36.293,0,0,1,487,255.6Q487.014,255.2,487.036,254.807Z" transform="translate(-156.824 -204.184)" fill="#e6e6e6"/>
    <path id="Path_1580" data-name="Path 1580" d="M777.587,338.055a29,29,0,0,1,6.045-5.7H771.008a21.114,21.114,0,0,1,6.579,5.7Z" transform="translate(-156.824 -204.184)" fill="none"/>
    <path id="Path_1581" data-name="Path 1581" d="M818.854,332.352h-2.176c.468.328.936.655,1.383,1.01C818.316,333.018,818.588,332.687,818.854,332.352Z" transform="translate(-156.824 -204.184)" fill="none"/>
    <path id="Path_1582" data-name="Path 1582" d="M760.905,329.734a20.833,20.833,0,0,0-10.129,2.617h20.232a20.742,20.742,0,0,0-10.1-2.617Z" transform="translate(-156.824 -204.184)" fill="#e6e6e6"/>
    <path id="Path_1583" data-name="Path 1583" d="M800.166,327.117a28.623,28.623,0,0,0-16.534,5.235h33.046A28.617,28.617,0,0,0,800.166,327.117Z" transform="translate(-156.824 -204.184)" fill="#e6e6e6"/>
    <path id="Path_1584" data-name="Path 1584" d="M1022.561,293.983a53.656,53.656,0,0,0-105.274-11.313c-.65-.023-1.3-.049-1.955-.049a53.666,53.666,0,0,0-51.479,38.529,37.92,37.92,0,0,0-45,11.2H986.226a36.293,36.293,0,0,0,36.373-37.577Q1022.583,294.379,1022.561,293.983Z" transform="translate(-156.824 -204.184)" fill="#e6e6e6"/>
    <rect id="Rectangle_428" data-name="Rectangle 428" width="19.453" height="3.088" transform="matrix(-1, -0.001, 0.001, -1, 773.601, 461.227)" fill="#3f3d56"/>
    <path id="Path_1585" data-name="Path 1585" d="M770.332,663.006l4.014.928,152.533.082,1.372-3.2a32.257,32.257,0,0,0,2.371-17.442c-.657-4.414-2.3-8.8-6.042-10.7L917.81,587.59l-84.389-.151-32.65,26.334s-15.4-.277-23.768,10.14a24.449,24.449,0,0,0-5.114,13.466l-.33,5.419Z" transform="translate(-156.824 -204.184)" fill="#007fff"/>
    <circle id="Ellipse_118" data-name="Ellipse 118" cx="18.835" cy="18.835" r="18.835" transform="translate(628.174 439.232)" fill="#3f3d56"/>
    <circle id="Ellipse_119" data-name="Ellipse 119" cx="9.913" cy="9.913" r="9.913" transform="translate(637.096 448.154)" fill="#ccc"/>
    <circle id="Ellipse_120" data-name="Ellipse 120" cx="18.835" cy="18.835" r="18.835" transform="translate(721.115 439.282)" fill="#3f3d56"/>
    <circle id="Ellipse_121" data-name="Ellipse 121" cx="9.913" cy="9.913" r="9.913" transform="translate(730.036 448.204)" fill="#ccc"/>
    <path id="Path_1586" data-name="Path 1586" d="M656.92,406.511l45.563.019h5.562l9.39.007v-.685l.007-8.258.007-9.272H711.2l-5.562-.006-9.852-.007h-5.562l-11.374-.007Z" fill="#fff"/>
    <path id="Path_1587" data-name="Path 1587" d="M724.849,406.544l24.08.013.006-4.725v-8.258l.007-5.232h-3.526l-5.562-.007-15-.006Z" fill="#fff"/>
    <rect id="Rectangle_429" data-name="Rectangle 429" width="3.088" height="5.867" transform="matrix(-1, -0.001, 0.001, -1, 717.424, 425.997)" fill="#3f3d56"/>
    <rect id="Rectangle_430" data-name="Rectangle 430" width="3.088" height="5.867" transform="matrix(-0.001, 1, -1, -0.001, 669.269, 411.766)" fill="#3f3d56"/>
    <path id="Path_1588" data-name="Path 1588" d="M817.138,604.4h.34a6.453,6.453,0,0,1,6.453,6.453h0a6.453,6.453,0,0,1-6.453,6.453h-.34Z" transform="matrix(-1, -0.001, 0.001, -1, 1483.919, 1017.955)" fill="#3f3d56"/>
    <path id="Path_1589" data-name="Path 1589" d="M771.559,642.8A9.975,9.975,0,0,0,777,623.913a24.449,24.449,0,0,0-5.114,13.466Z" transform="translate(-156.824 -204.184)" fill="#3f3d56"/>
    <path id="Path_1590" data-name="Path 1590" d="M705.639,388.316l11.8,17.536.007-8.258-6.241-9.272Z" fill="#f2f2f2"/>
    <path id="Path_1591" data-name="Path 1591" d="M739.854,388.335l9.081,13.5v-8.258l-3.519-5.232Z" fill="#f2f2f2"/>
    <path id="Path_1592" data-name="Path 1592" d="M690.225,388.309l12.258,18.221h5.562l-12.258-18.221Z" fill="#f2f2f2"/>
    <circle id="Ellipse_122" data-name="Ellipse 122" cx="50.058" cy="50.058" r="50.058" transform="translate(0 210.872)" fill="#3f3d56"/>
    <path id="Path_1594" data-name="Path 1594" d="M-2008.794-10359.391a2.577,2.577,0,0,1,0-3.647l20.058-20.059-20.058-20.058a2.578,2.578,0,0,1,0-3.648,2.579,2.579,0,0,1,3.647,0l20.058,20.06,20.057-20.058a2.576,2.576,0,0,1,3.647,0,2.576,2.576,0,0,1,0,3.646l-20.057,20.058,20.057,20.059a2.577,2.577,0,0,1,0,3.647,2.581,2.581,0,0,1-3.647,0l-20.058-20.059-20.058,20.059a2.573,2.573,0,0,1-1.824.756A2.568,2.568,0,0,1-2008.794-10359.391Z" transform="translate(2035.589 10643.59)" fill="#ff6584"/>
  </g>
</svg>
