<svg id="g5891" xmlns="http://www.w3.org/2000/svg" width="28.016" height="28.016" viewBox="0 0 28.016 28.016">
  <path id="Path_131" data-name="Path 131" d="M135.6,707.33H114.59a3.507,3.507,0,0,0-3.5,3.5v21.009a3.507,3.507,0,0,0,3.5,3.5H135.6a3.507,3.507,0,0,0,3.5-3.5V710.834A3.507,3.507,0,0,0,135.6,707.33ZM119.12,731.219h-4.692V717.105h4.692Zm-2.347-16.04h-.032a2.681,2.681,0,1,1,.032,0Zm19.262,16.04h-4.692v-7.55c0-1.9-.679-3.193-2.375-3.193a2.572,2.572,0,0,0-2.408,1.715,3.212,3.212,0,0,0-.154,1.144v7.883h-4.692s.063-12.791,0-14.114h4.692v2a4.652,4.652,0,0,1,4.227-2.331c3.089,0,5.4,2.015,5.4,6.352Z" transform="translate(-111.086 -707.33)" fill-rule="evenodd"/>
</svg>
