<svg xmlns="http://www.w3.org/2000/svg" xmlns:xlink="http://www.w3.org/1999/xlink" width="180" height="40.403" viewBox="0 0 180 40.403">
  <defs>
    <linearGradient id="linear-gradient" x1="-1.25" y1="0.5" x2="0.915" y2="0.5" gradientUnits="objectBoundingBox">
      <stop offset="0.107" stop-color="#0f26aa"/>
      <stop offset="0.88" stop-color="#ff4a56"/>
    </linearGradient>
    <linearGradient id="linear-gradient-2" x1="-0.249" y1="0.5" x2="1.915" y2="0.5" xlink:href="#linear-gradient"/>
  </defs>
  <g id="Group_12" data-name="Group 12" transform="translate(-274.406 -386.112)">
    <g id="Group_9" data-name="Group 9" transform="translate(427.324 386.244)">
      <g id="Group_7" data-name="Group 7" transform="translate(13.544 0)">
        <path id="Path_11" data-name="Path 11" d="M1556,391.807v-4.686a13.554,13.554,0,0,0-13.538,13.539h4.686A8.863,8.863,0,0,1,1556,391.807Z" transform="translate(-1542.465 -387.121)" fill="url(#linear-gradient)"/>
      </g>
      <g id="Group_8" data-name="Group 8" transform="translate(0 0)">
        <path id="Path_12" data-name="Path 12" d="M1439.291,387.121v4.686a8.863,8.863,0,0,1,8.853,8.853h4.686A13.554,13.554,0,0,0,1439.291,387.121Z" transform="translate(-1439.291 -387.121)" fill="url(#linear-gradient-2)"/>
      </g>
    </g>
    <g id="Group_11" data-name="Group 11" transform="translate(274.406 386.112)">
      <path id="Path_13" data-name="Path 13" d="M274.406,401.9c0-9.282,6.549-15.788,15.874-15.788A15.451,15.451,0,0,1,301.6,390.8l-3.383,3.123a10.529,10.529,0,0,0-7.764-3.166c-6.462,0-10.93,4.554-10.93,11.147s4.467,11.147,10.93,11.147a11.635,11.635,0,0,0,8.111-3.253l3.253,3.383a15.763,15.763,0,0,1-11.493,4.511C280.912,417.687,274.406,411.182,274.406,401.9Z" transform="translate(-274.406 -386.112)"/>
      <path id="Path_14" data-name="Path 14" d="M657.869,475.145l2.255-3.513a12.432,12.432,0,0,0,7.547,2.386c2.732,0,4.294-.868,4.294-2.429,0-1.518-1.388-2.255-4.684-2.6-5.6-.52-8.761-2.863-8.761-6.593,0-3.9,3.73-6.549,9.282-6.549a14.647,14.647,0,0,1,8.5,2.472l-2.125,3.47a11.229,11.229,0,0,0-6.159-1.822c-3.08,0-4.728.868-4.728,2.429,0,1.388,1.258,2.125,4.38,2.472,6.332.694,9.108,2.732,9.108,6.766,0,3.99-3.686,6.679-9.238,6.679A15.771,15.771,0,0,1,657.869,475.145Z" transform="translate(-607.531 -446.69)"/>
      <path id="Path_15" data-name="Path 15" d="M820.309,467.364c0-6.636,4.6-11.19,11.407-11.19a11.27,11.27,0,0,1,8.11,3.3l-2.949,3.166A7.221,7.221,0,0,0,831.8,460.6a6.767,6.767,0,0,0,0,13.532,7.062,7.062,0,0,0,5.291-2.212l2.993,3.253a11.357,11.357,0,0,1-8.327,3.383C824.82,478.554,820.309,474.13,820.309,467.364Z" transform="translate(-748.647 -446.977)"/>
      <path id="Path_16" data-name="Path 16" d="M1001.3,456.651l-.044,2.863a9.766,9.766,0,0,0-7.807-3.34c-6.289,0-10.626,4.6-10.626,11.19s4.337,11.19,10.626,11.19a9.828,9.828,0,0,0,7.807-3.34l.044,2.863h4.337V456.651Zm-7.07,17.479c-3.86,0-6.549-2.776-6.549-6.766s2.689-6.766,6.549-6.766,6.549,2.776,6.549,6.766S998.086,474.13,994.226,474.13Z" transform="translate(-889.823 -446.977)"/>
      <rect id="Rectangle_2" data-name="Rectangle 2" width="4.858" height="30.944" transform="translate(121.642 0.132)"/>
      <path id="Path_17" data-name="Path 17" d="M1281.891,455.513c-6.636,0-11.1,4.511-11.1,11.147,0,6.853,4.554,11.32,11.624,11.32a12.669,12.669,0,0,0,9.238-3.73l-2.949-2.863a8.939,8.939,0,0,1-6.159,2.212c-3.773,0-6.376-2-6.766-5.118h17.132C1293.6,460.458,1289.438,455.513,1281.891,455.513Zm-6.072,9.2c.607-3.166,2.82-4.988,6.2-4.988,3.557,0,5.9,1.952,6.246,4.988Z" transform="translate(-1139.99 -446.403)"/>
      <path id="Path_18" data-name="Path 18" d="M997.534,693.888" transform="translate(-902.607 -653.485)" fill="#fff"/>
      <g id="Group_10" data-name="Group 10" transform="translate(27.555 9.674)">
        <path id="Path_19" data-name="Path 19" d="M496.432,485.44l10.37-25.631h-5.271l-6,15.992-6-15.992h-5.228l8.7,21.753-1.225,2.813c-.585,1.266-1.639,1.831-3.419,1.831a5.782,5.782,0,0,1-1.473-.215l-.709,4.251a16.933,16.933,0,0,0,2.357.224C492.775,490.364,495.061,488.908,496.432,485.44Z" transform="translate(-484.309 -459.809)"/>
      </g>
      <path id="Path_20" data-name="Path 20" d="M838.108,551.058" transform="translate(-764.109 -529.405)" fill="#fff"/>
    </g>
  </g>
</svg>
