<svg xmlns="http://www.w3.org/2000/svg" width="21.728" height="18.756" viewBox="0 0 21.728 18.756">
  <g id="Group_208" data-name="Group 208" transform="translate(-264.016 -381.545)">
    <path id="Path_183" data-name="Path 183" d="M282.914,382.045H266.846a2.33,2.33,0,0,0-2.33,2.33v9.606a2.33,2.33,0,0,0,2.33,2.33H272a.807.807,0,0,1,.7.4l1.583,2.742a.687.687,0,0,0,1.191,0l1.583-2.742a.806.806,0,0,1,.7-.4h5.156a2.33,2.33,0,0,0,2.33-2.33v-9.606A2.33,2.33,0,0,0,282.914,382.045Z" fill="none" stroke="#9b9b9b" stroke-miterlimit="10" stroke-width="1"/>
    <line id="Line_18" data-name="Line 18" x2="5.193" transform="translate(269.053 387.112)" fill="none" stroke="#9b9b9b" stroke-miterlimit="10" stroke-width="1"/>
    <line id="Line_19" data-name="Line 19" x2="11.655" transform="translate(269.053 391.374)" fill="none" stroke="#9b9b9b" stroke-miterlimit="10" stroke-width="1"/>
  </g>
</svg>
