<svg xmlns="http://www.w3.org/2000/svg" width="54.825" height="44.332" viewBox="0 0 54.825 44.332">
  <g id="padlock_3_" data-name="padlock (3)" transform="translate(-10 -57)">
    <path id="Path_320" data-name="Path 320" d="M62.2,84.39a2.588,2.588,0,0,0-1.854.75,2.49,2.49,0,0,0-.678,1.168H40.087V85.193h5.677a2.675,2.675,0,0,0,2.658-2.674,1.336,1.336,0,0,1,1.321-1.337h3.68a2.619,2.619,0,1,0,.682-2.517,2.579,2.579,0,0,0-.682,1.179h-3.68a2.675,2.675,0,0,0-2.658,2.674,1.336,1.336,0,0,1-1.321,1.337H40.087V82.519h2.788a3.193,3.193,0,0,0,2.976-2.079l1.294-3.507a1.856,1.856,0,0,1,1.722-1.212H49.2a2.541,2.541,0,0,0,.73,1.419,2.619,2.619,0,1,0,0-3.708,2.777,2.777,0,0,0-.613.952h-.45a3.2,3.2,0,0,0-2.976,2.081L44.6,79.97a1.855,1.855,0,0,1-1.721,1.211H40.087V78.7a3.864,3.864,0,0,0-3.9-3.866h-.111v-10.4A7.449,7.449,0,0,0,28.634,57H21.47a7.464,7.464,0,0,0-7.459,7.426v10.4h-.095A3.878,3.878,0,0,0,10,78.7V96.625a3.947,3.947,0,0,0,3.917,3.947h22.27a3.932,3.932,0,0,0,3.9-3.947V92.882h2.788A1.832,1.832,0,0,1,44.6,94.068l1.294,3.461a3.157,3.157,0,0,0,2.976,2.039h.45a2.132,2.132,0,0,0,.613.987,2.613,2.613,0,1,0,1.854-4.449,2.58,2.58,0,0,0-1.854.742,2.856,2.856,0,0,0-.73,1.384h-.333a1.82,1.82,0,0,1-1.722-1.173l-1.294-3.468a3.163,3.163,0,0,0-2.976-2.046H40.087V90.208h5.677a1.336,1.336,0,0,1,1.321,1.337,2.675,2.675,0,0,0,2.657,2.674h3.68a2.515,2.515,0,0,0,.682,1.159,2.648,2.648,0,1,0,0-3.708,2.683,2.683,0,0,0-.682,1.212h-3.68a1.336,1.336,0,0,1-1.321-1.337,2.675,2.675,0,0,0-2.657-2.674H40.087V87.645H59.673A2.616,2.616,0,1,0,62.2,84.39ZM55.05,79.616a1.284,1.284,0,1,1-.376.908,1.284,1.284,0,0,1,.376-.908Zm-4.175-5.229a1.285,1.285,0,1,1-.376.908,1.285,1.285,0,0,1,.376-.908ZM29.5,58.4a6.139,6.139,0,0,1,5.237,6.029v10.4H32.956v-9.9A4.781,4.781,0,0,0,29.5,60.3Zm-7.578-.061h6.24V60.12h-6.24Zm.152,3.12h6.111a3.451,3.451,0,0,1,3.432,3.475v9.9H18.58v-9.9A3.506,3.506,0,0,1,22.076,61.457Zm-6.727,2.969A6.139,6.139,0,0,1,20.586,58.4V60.35a4.864,4.864,0,0,0-3.343,4.583v9.9H15.349Zm23.4,32.228a2.58,2.58,0,0,1-2.58,2.58H13.917a2.58,2.58,0,0,1-2.58-2.58V78.746a2.58,2.58,0,0,1,2.58-2.58H36.171a2.58,2.58,0,0,1,2.58,2.58Zm12.125,1.165a1.285,1.285,0,1,1-.376.908A1.285,1.285,0,0,1,50.876,97.819Zm4.175-5.229a1.285,1.285,0,1,1-.376.908,1.285,1.285,0,0,1,.376-.908Zm8.062-4.67a1.275,1.275,0,1,1,.38-.908,1.284,1.284,0,0,1-.38.908Z"/>
    <path id="Path_321" data-name="Path 321" d="M108.695,286H99.669a.669.669,0,0,0-.669.669v9.026a.669.669,0,0,0,.669.669h9.026a.669.669,0,0,0,.669-.669v-9.026A.669.669,0,0,0,108.695,286Zm-.669,9.026h-7.689v-7.689h7.689Z" transform="translate(-79.082 -203.481)"/>
    <path id="Path_322" data-name="Path 322" d="M119.669,311.906h4.569a.669.669,0,0,0,.669-.669v-4.569a.669.669,0,0,0-.669-.669h-4.569a.669.669,0,0,0-.669.669v4.569A.669.669,0,0,0,119.669,311.906Zm.669-4.569h3.232v3.232h-3.232Z" transform="translate(-96.854 -221.253)"/>
    <path id="Path_323" data-name="Path 323" d="M73.474,248.262a.669.669,0,1,0,0-1.337H71.429v-.33a2.873,2.873,0,0,0-2.86-2.9h-.26v-2a.669.669,0,1,0-1.337,0v2h-2.34v-2a.669.669,0,0,0-1.337,0v2H61.066v-2a.669.669,0,1,0-1.337,0v2h-.354a2.887,2.887,0,0,0-2.877,2.9v.33H54.469a.669.669,0,1,0,0,1.337H56.5v2.229H54.469a.669.669,0,0,0,0,1.337H56.5v2.34H54.469a.669.669,0,1,0,0,1.337H56.5v.285a2.926,2.926,0,0,0,2.877,2.947h.354V260.7a.669.669,0,1,0,1.337,0v-1.958h2.229V260.7a.669.669,0,1,0,1.337,0v-1.958h2.34V260.7a.669.669,0,1,0,1.337,0v-1.958h1.124a2.048,2.048,0,0,0,2-2.084v-1.148h2.045a.669.669,0,0,0,0-1.337H71.429v-2.34h2.045a.669.669,0,0,0,0-1.337H71.429v-2.229Zm-3.382,8.391a.711.711,0,0,1-.659.747H59.374a1.588,1.588,0,0,1-1.54-1.61v-9.2a1.549,1.549,0,0,1,1.54-1.565h9.2a1.534,1.534,0,0,1,1.523,1.565Z" transform="translate(-38.919 -163.515)"/>
    <path id="Path_324" data-name="Path 324" d="M33.669,246.857a.669.669,0,0,0-.669.669v.468a.669.669,0,1,0,1.337,0v-.468A.669.669,0,0,0,33.669,246.857Z" transform="translate(-20.437 -168.7)"/>
    <path id="Path_325" data-name="Path 325" d="M33.669,271.6a.669.669,0,0,0-.669.669v5.449a.669.669,0,1,0,1.337,0v-5.449A.669.669,0,0,0,33.669,271.6Z" transform="translate(-20.437 -190.686)"/>
  </g>
</svg>
