<svg xmlns="http://www.w3.org/2000/svg" width="81.362" height="55.911" viewBox="0 0 81.362 55.911">
  <path id="Path_270" data-name="Path 270" d="M926.561,177.6a13.03,13.03,0,0,1,4.08-10.845,14.907,14.907,0,1,1,0,21.062h0a16.533,16.533,0,0,0-23.349,0h0a16.457,16.457,0,0,0,0,23.305h0a16.533,16.533,0,0,0,23.349,0l22.992-22.949a16.533,16.533,0,0,1,23.349,0h0a16.457,16.457,0,0,1,0,23.305h0a16.533,16.533,0,0,1-23.349,0l-6.432-6.42" transform="translate(-901.459 -161.397)" fill="none" stroke="#000" stroke-miterlimit="10" stroke-width="2"/>
</svg>
