<svg xmlns="http://www.w3.org/2000/svg" xmlns:xlink="http://www.w3.org/1999/xlink" width="387.625" height="537.424" viewBox="0 0 387.625 537.424">
  <defs>
    <filter id="Path_290" x="12.763" y="243.65" width="362.292" height="293.773" filterUnits="userSpaceOnUse">
      <feOffset dy="3" input="SourceAlpha"/>
      <feGaussianBlur stdDeviation="11" result="blur"/>
      <feFlood flood-opacity="0.161"/>
      <feComposite operator="in" in2="blur"/>
      <feComposite in="SourceGraphic"/>
    </filter>
  </defs>
  <g id="Group_531" data-name="Group 531" transform="translate(-892 -185.669)">
    <path id="Path_295" data-name="Path 295" d="M8907.4,234.942,9094.611,418.9h-39.267v205.9H8754.9V418.9h-39.909Z" transform="translate(-7818.986 -45.273)" fill="none" stroke="#fff" stroke-linejoin="round" stroke-width="8"/>
    <g id="Group_459" data-name="Group 459" transform="translate(937.763 459.319)">
      <g id="laptop_1_" data-name="laptop (1)" transform="translate(0 0)">
        <g id="Group_453" data-name="Group 453">
          <g id="Group_452" data-name="Group 452">
            <g transform="matrix(1, 0, 0, 1, -45.76, -273.65)" filter="url(#Path_290)">
              <path id="Path_290-2" data-name="Path 290" d="M296.278,265.715c0-.043,0-.086-.006-.13a4.249,4.249,0,0,0-.076-.505c0-.016-.009-.032-.013-.049a4.2,4.2,0,0,0-.126-.444c-.013-.039-.028-.076-.042-.115q-.073-.2-.164-.384c-.01-.022-.017-.045-.028-.066L272.61,218.238V67.6a8.411,8.411,0,0,0-8.4-8.4H32.083a8.411,8.411,0,0,0-8.4,8.4V218.236L.469,264.022c-.011.022-.018.045-.028.067-.061.124-.115.252-.164.383-.014.038-.029.076-.042.115a4.408,4.408,0,0,0-.126.446c0,.016-.009.031-.012.047a4.276,4.276,0,0,0-.076.506c0,.043,0,.086-.006.129-.006.09-.014.179-.014.271V277a9.99,9.99,0,0,0,9.979,9.979H286.313A9.99,9.99,0,0,0,296.292,277v-11.01C296.292,265.894,296.284,265.8,296.278,265.715ZM32.362,67.883H263.93V214.934H32.362ZM30.688,223.614H265.6l19.281,38.03H189.527l-4.786-17.355a8.2,8.2,0,0,0-7.879-6H119.429a8.2,8.2,0,0,0-7.879,6l-4.786,17.355H11.407Zm149.835,38.031H115.769l4.047-14.675h56.66Zm107.089,15.35a1.3,1.3,0,0,1-1.3,1.3H9.979a1.3,1.3,0,0,1-1.3-1.3v-6.67H287.612Z" transform="translate(45.76 214.45)" fill="#fff"/>
            </g>
          </g>
        </g>
        <g id="Group_455" data-name="Group 455" transform="translate(41.622 89.44)">
          <g id="Group_454" data-name="Group 454">
            <path id="Path_291" data-name="Path 291" d="M280.632,213.756a4.34,4.34,0,0,0-4.34,4.34v44.013H80.6V218.1a4.34,4.34,0,0,0-8.68,0v45.887a6.813,6.813,0,0,0,6.806,6.806H278.167a6.813,6.813,0,0,0,6.806-6.806V218.1A4.341,4.341,0,0,0,280.632,213.756Z" transform="translate(-71.923 -213.756)" fill="#fff"/>
          </g>
        </g>
        <g id="Group_457" data-name="Group 457" transform="translate(41.622 17.941)">
          <g id="Group_456" data-name="Group 456">
            <path id="Path_292" data-name="Path 292" d="M278.166,90.2H78.729a6.813,6.813,0,0,0-6.806,6.806V142.9a4.34,4.34,0,1,0,8.68,0V98.883H276.292V142.9a4.34,4.34,0,1,0,8.68,0V97.009A6.813,6.813,0,0,0,278.166,90.2Z" transform="translate(-71.923 -90.203)" fill="#fff"/>
          </g>
        </g>
      </g>
      <rect id="Rectangle_2283" data-name="Rectangle 2283" width="229.919" height="148.489" transform="translate(33.548 8.942)" fill="#f4f4f4"/>
    </g>
    <g id="Group_461" data-name="Group 461" transform="translate(1047.472 283.103)">
      <g id="Group_460" data-name="Group 460" transform="translate(0)">
        <path id="Path_293" data-name="Path 293" d="M133.715,46.182v-17.2a28.836,28.836,0,0,0-8.61-20.72A27.917,27.917,0,0,0,105.283,0h-.368A28.917,28.917,0,0,0,76.16,28.985v17.2A11.743,11.743,0,0,0,65.8,57.993V96.624A11.9,11.9,0,0,0,77.61,108.6h54.677A11.9,11.9,0,0,0,144.1,96.624V57.993A11.8,11.8,0,0,0,133.715,46.182Zm-52.974-17.2h.023A24.363,24.363,0,0,1,104.938,4.535h.023a23.846,23.846,0,0,1,16.9,6.953,24.379,24.379,0,0,1,7.229,17.5V46.205h-5.065V28.985a19.4,19.4,0,0,0-5.732-13.928A18.665,18.665,0,0,0,105.1,9.577h-.138A19.278,19.278,0,0,0,85.806,28.962V46.205H80.741V28.985Zm38.7,0V46.205H90.434V28.985a14.661,14.661,0,0,1,14.55-14.78h.138a14.119,14.119,0,0,1,9.969,4.144A14.84,14.84,0,0,1,119.441,28.985ZM139.7,96.693h0a7.3,7.3,0,0,1-7.3,7.3H77.7a7.3,7.3,0,0,1-7.3-7.3V58.108a7.3,7.3,0,0,1,7.3-7.3h54.7a7.3,7.3,0,0,1,7.3,7.3Z" transform="translate(-65.8 0)" fill="#0f26aa"/>
      </g>
    </g>
    <g id="Group_463" data-name="Group 463" transform="translate(1078.298 353.066)">
      <g id="Group_462" data-name="Group 462">
        <path id="Path_294" data-name="Path 294" d="M215.977,309.909a8.3,8.3,0,1,0-10.268,10.268v6.446a2.3,2.3,0,1,0,4.6,0v-6.446A8.278,8.278,0,0,0,215.977,309.909Zm-7.966,5.986a3.707,3.707,0,1,1,3.707-3.707A3.7,3.7,0,0,1,208.011,315.895Z" transform="translate(-199.7 -303.9)" fill="#0f26aa"/>
      </g>
    </g>
  </g>
</svg>
