<svg xmlns="http://www.w3.org/2000/svg" width="63.599" height="69.989" viewBox="0 0 63.599 69.989">
  <g id="shield_2_" data-name="shield (2)" transform="translate(-23.539)">
    <g id="Group_465" data-name="Group 465" transform="translate(53.06 31.749)">
      <g id="Group_464" data-name="Group 464">
        <path id="Path_296" data-name="Path 296" d="M241.547,232.255a2.332,2.332,0,0,0-1,4.44v2.836a1,1,0,1,0,1.992,0V236.7a2.332,2.332,0,0,0-1-4.44Z" transform="translate(-239.214 -232.255)"/>
      </g>
    </g>
    <g id="Group_467" data-name="Group 467" transform="translate(28.477 4.613)">
      <g id="Group_466" data-name="Group 466">
        <path id="Path_297" data-name="Path 297" d="M111.154,44.329a17.712,17.712,0,0,1-9.584-8.8,3.148,3.148,0,0,0-2.834-1.781H73.776a3.148,3.148,0,0,0-2.833,1.781,17.712,17.712,0,0,1-9.584,8.8,3.122,3.122,0,0,0-1.98,2.921v6.071A42.409,42.409,0,0,0,66.09,76.056,48.8,48.8,0,0,0,84.667,92.932l.126.066a3.145,3.145,0,0,0,2.927,0l.126-.066a48.8,48.8,0,0,0,18.577-16.876,42.411,42.411,0,0,0,6.711-22.735V47.25A3.122,3.122,0,0,0,111.154,44.329Zm-.012,8.992a40.422,40.422,0,0,1-6.4,21.667A46.811,46.811,0,0,1,86.92,91.169l-.126.066a1.153,1.153,0,0,1-1.074,0l-.126-.066A46.81,46.81,0,0,1,67.772,74.989a40.422,40.422,0,0,1-6.4-21.668V47.25a1.14,1.14,0,0,1,.721-1.069,19.7,19.7,0,0,0,10.65-9.8,1.146,1.146,0,0,1,1.035-.644H98.737a1.146,1.146,0,0,1,1.035.644,19.7,19.7,0,0,0,10.65,9.8,1.14,1.14,0,0,1,.721,1.069Z" transform="translate(-59.379 -33.749)"/>
      </g>
    </g>
    <g id="Group_469" data-name="Group 469" transform="translate(24.674 33.557)">
      <g id="Group_468" data-name="Group 468">
        <path id="Path_298" data-name="Path 298" d="M92.13,245.568a1,1,0,0,0-1.191.752C87.9,259.74,78.666,271.379,65.59,278.252l-3.039,1.6a.674.674,0,0,1-.627,0l-3.039-1.6c-13.1-6.884-22.34-18.542-25.361-31.987a1,1,0,1,0-1.944.437c3.149,14.016,12.763,26.158,26.378,33.314l3.039,1.6a2.665,2.665,0,0,0,2.48,0l3.039-1.6c13.593-7.144,23.2-19.266,26.365-33.256A1,1,0,0,0,92.13,245.568Z" transform="translate(-31.557 -245.487)"/>
      </g>
    </g>
    <g id="Group_471" data-name="Group 471" transform="translate(23.584)">
      <g id="Group_470" data-name="Group 470">
        <path id="Path_299" data-name="Path 299" d="M84.761,11.4c-5.319-.561-9.5-4.294-10.17-9.079A2.69,2.69,0,0,0,71.949,0H38.761a2.69,2.69,0,0,0-2.642,2.319c-.67,4.784-4.852,8.517-10.17,9.079a2.648,2.648,0,0,0-2.364,2.648l-.045,10.7a44.66,44.66,0,0,0,1.125,9.884,1,1,0,0,0,.99.894,1.009,1.009,0,0,0,.1-.005,1,1,0,0,0,.889-1.093,44.015,44.015,0,0,1-1.069-9.68v-10.7a.668.668,0,0,1,.581-.667c6.23-.657,11.138-5.092,11.934-10.784a.681.681,0,0,1,.67-.6H71.948a.681.681,0,0,1,.67.6c.8,5.692,5.7,10.126,11.934,10.784a.668.668,0,0,1,.581.667v10.7a42.5,42.5,0,0,1-1.1,9.921,1,1,0,0,0,1.982.2,43.094,43.094,0,0,0,1.114-10.123v-10.7A2.647,2.647,0,0,0,84.761,11.4Z" transform="translate(-23.584)"/>
      </g>
    </g>
    <g id="Group_473" data-name="Group 473" transform="translate(40.855 10.373)">
      <g id="Group_472" data-name="Group 472">
        <path id="Path_300" data-name="Path 300" d="M175.836,90.372H174.2V85.618a9.733,9.733,0,0,0-19.465,0v4.755h-1.638a3.171,3.171,0,0,0-3.168,3.168V107.8a3.171,3.171,0,0,0,3.168,3.168h22.741A3.171,3.171,0,0,0,179,107.8V93.54A3.171,3.171,0,0,0,175.836,90.372Zm-19.111-4.754a7.741,7.741,0,0,1,15.481,0v4.755H156.725ZM177.011,107.8a1.177,1.177,0,0,1-1.176,1.176H153.095a1.177,1.177,0,0,1-1.176-1.176V93.54a1.177,1.177,0,0,1,1.176-1.176h22.741a1.177,1.177,0,0,1,1.176,1.176Z" transform="translate(-149.927 -75.885)"/>
      </g>
    </g>
  </g>
</svg>
