<svg xmlns="http://www.w3.org/2000/svg" xmlns:xlink="http://www.w3.org/1999/xlink" width="234.954" height="163.844" viewBox="0 0 234.954 163.844">
  <defs>
    <linearGradient id="linear-gradient" x1="0.054" y1="0.5" x2="0.946" y2="0.5" gradientUnits="objectBoundingBox">
      <stop offset="0.107" stop-color="#0f26aa"/>
      <stop offset="0.88" stop-color="#ff4a56"/>
    </linearGradient>
    <linearGradient id="linear-gradient-2" x1="-1.21" y1="0.5" x2="2.21" y2="0.5" xlink:href="#linear-gradient"/>
    <linearGradient id="linear-gradient-3" x1="0" y1="0.5" x2="1" y2="0.5" xlink:href="#linear-gradient"/>
  </defs>
  <g id="Group_405" data-name="Group 405" transform="translate(-762.396 4923.19)">
    <g id="Group_400" data-name="Group 400" transform="translate(823.084 -4858.684)">
      <rect id="Rectangle_2246" data-name="Rectangle 2246" width="38.105" height="9.93" transform="matrix(0.707, -0.707, 0.707, 0.707, 0, 26.944)" fill="url(#linear-gradient)"/>
    </g>
    <g id="Group_401" data-name="Group 401" transform="translate(902.239 -4858.684)">
      <rect id="Rectangle_2247" data-name="Rectangle 2247" width="9.93" height="38.106" transform="translate(0 7.022) rotate(-45)" fill="url(#linear-gradient-2)"/>
    </g>
    <g id="Group_402" data-name="Group 402" transform="translate(838.096 -4923.19)">
      <path id="Path_257" data-name="Path 257" d="M1053.614-4840.1a41.594,41.594,0,0,1-41.547-41.547,41.594,41.594,0,0,1,41.547-41.546,41.594,41.594,0,0,1,41.546,41.546A41.594,41.594,0,0,1,1053.614-4840.1Zm0-73.163A31.652,31.652,0,0,0,1022-4881.644a31.652,31.652,0,0,0,31.616,31.616,31.652,31.652,0,0,0,31.616-31.616A31.652,31.652,0,0,0,1053.614-4913.26Z" transform="translate(-1012.067 4923.19)" fill="url(#linear-gradient-3)"/>
    </g>
    <g id="Group_403" data-name="Group 403" transform="translate(762.396 -4842.438)">
      <path id="Path_258" data-name="Path 258" d="M803.943-4573.765a41.593,41.593,0,0,1-41.547-41.546,41.594,41.594,0,0,1,41.547-41.546,41.594,41.594,0,0,1,41.546,41.546A41.593,41.593,0,0,1,803.943-4573.765Zm0-73.163a31.652,31.652,0,0,0-31.617,31.616,31.652,31.652,0,0,0,31.617,31.616,31.652,31.652,0,0,0,31.616-31.616A31.652,31.652,0,0,0,803.943-4646.928Z" transform="translate(-762.396 4656.858)" fill="url(#linear-gradient-3)"/>
    </g>
    <g id="Group_404" data-name="Group 404" transform="translate(914.257 -4842.438)">
      <path id="Path_259" data-name="Path 259" d="M1304.807-4573.765a41.593,41.593,0,0,1-41.547-41.546,41.593,41.593,0,0,1,41.547-41.546,41.593,41.593,0,0,1,41.546,41.546A41.593,41.593,0,0,1,1304.807-4573.765Zm0-73.163a31.652,31.652,0,0,0-31.616,31.616,31.652,31.652,0,0,0,31.616,31.616,31.652,31.652,0,0,0,31.616-31.616A31.651,31.651,0,0,0,1304.807-4646.928Z" transform="translate(-1263.26 4656.858)" fill="url(#linear-gradient-3)"/>
    </g>
  </g>
</svg>
