<svg xmlns="http://www.w3.org/2000/svg" viewBox="0 0 55.79 43.21"><defs><style>.cls-1{fill:#0089d6;}</style></defs><title>Asset 1</title><g id="Layer_2" data-name="Layer 2"><g id="Layer_1-2" data-name="Layer 1"><path id="path21" class="cls-1" d="M25.81,40.91,39,38.58l.12,0-6.77-8c-3.72-4.43-6.76-8.06-6.76-8.09s7-19.28,7-19.35S37.35,11.25,44.11,23c6.33,11,11.55,20,11.59,20.09l.09.15h-43ZM0,38.45s3.19-5.55,7.09-12.3l7.08-12.28,8.26-6.93L30.71,0a1.12,1.12,0,0,1-.13.33l-9,19.24L12.81,38.46H6.4C2.88,38.47,0,38.46,0,38.45Z"/></g></g></svg>