<svg xmlns="http://www.w3.org/2000/svg" viewBox="0 0 33.37 26.85"><defs><style>.cls-1{fill:#ea4335;}.cls-2{fill:#4285f4;}.cls-3{fill:#34a853;}.cls-4{fill:#fbbc05;}</style></defs><title>Asset 1</title><g id="Layer_2" data-name="Layer 2"><g id="Layer_1-2" data-name="Layer 1"><path class="cls-1" d="M21.17,7.4h.11l-.07-.06,4-4V3.26A13,13,0,0,0,4,9.62l.21-.07A9.41,9.41,0,0,1,9.37,8a8.69,8.69,0,0,1,1.84.17.09.09,0,0,1,.08,0,7.22,7.22,0,0,1,9.9-.75Z"/><path class="cls-2" d="M29.22,9.62a13,13,0,0,0-3.94-6.35L21.21,7.34a7.25,7.25,0,0,1,2.66,5.74v.72c4.83,0,4.83,7.25,0,7.25H16.61v5.75h0l0,0h7.25A9.42,9.42,0,0,0,29.22,9.62Z"/><path class="cls-3" d="M9.37,26.81h7.24V21H9.37a3.66,3.66,0,0,1-1.49-.32L3.69,24.88v0a9.42,9.42,0,0,0,5.69,1.89Z"/><path class="cls-4" d="M9.37,8A9.42,9.42,0,0,0,3.68,24.89l4.2-4.21a3.62,3.62,0,1,1,4.8-4.79l4.2-4.2A9.38,9.38,0,0,0,9.37,8Z"/></g></g></svg>