<svg xmlns="http://www.w3.org/2000/svg" width="35.397" height="28.76" viewBox="0 0 35.397 28.76">
  <path id="Path_216" data-name="Path 216" d="M163.409,735.878c13.356,0,20.663-11.065,20.663-20.663,0-.314,0-.627-.021-.937a14.816,14.816,0,0,0,3.623-3.76,14.471,14.471,0,0,1-4.172,1.143,7.278,7.278,0,0,0,3.193-4.016,14.552,14.552,0,0,1-4.611,1.762,7.269,7.269,0,0,0-12.376,6.623,20.624,20.624,0,0,1-14.966-7.586,7.3,7.3,0,0,0,2.249,9.693,7.208,7.208,0,0,1-3.3-.907v.091a7.286,7.286,0,0,0,5.826,7.12,7.266,7.266,0,0,1-3.279.125,7.285,7.285,0,0,0,6.784,5.043,14.6,14.6,0,0,1-10.748,3.01,20.565,20.565,0,0,0,11.132,3.256" transform="translate(-152.277 -707.118)"/>
</svg>
