<svg xmlns="http://www.w3.org/2000/svg" width="39.957" height="44.551" viewBox="0 0 39.957 44.551">
  <g id="updated" transform="translate(-0.499)">
    <path id="Path_362" data-name="Path 362" d="M11.236,35.218A15.76,15.76,0,0,1,19.468,6.58v1.4a1.117,1.117,0,0,0,1.746.921l5.014-3.43a1.117,1.117,0,0,0,0-1.843L21.215.2a1.115,1.115,0,0,0-1.746.921V2.539a19.733,19.733,0,0,0-9.752,3.04.653.653,0,0,0,.7,1.1,18.426,18.426,0,0,1,9.052-2.836V5.27a17.067,17.067,0,0,0-8.984,31.017.711.711,0,0,1-.808,1.171A18.5,18.5,0,0,1,8.382,8.173a.653.653,0,1,0-.842-1A19.808,19.808,0,0,0,8.925,38.527a2.018,2.018,0,0,0,2.311-3.309Zm9.54-33.74,4.486,3.069L20.775,7.616Zm0,0" transform="translate(0)"/>
    <path id="Path_363" data-name="Path 363" d="M176.153,65.425a2.025,2.025,0,0,0-3.17,1.711,2,2,0,0,0,.859,1.6,15.759,15.759,0,0,1-8.233,28.638v-1.4a1.117,1.117,0,0,0-1.746-.921l-5.014,3.43a1.116,1.116,0,0,0,0,1.843c5.478,3.747,5.174,3.626,5.643,3.626a1.118,1.118,0,0,0,1.118-1.117v-1.422a19.8,19.8,0,0,0,10.543-35.987ZM164.3,102.474l-4.486-3.068,4.486-3.069Zm1.308-2.368V98.682a17.067,17.067,0,0,0,8.983-31.017.707.707,0,0,1-.3-.564.718.718,0,0,1,1.112-.607,18.49,18.49,0,0,1-9.791,33.611Zm0,0" transform="translate(-144.128 -59.402)"/>
    <path id="Path_364" data-name="Path 364" d="M122.512,187.4l-1.744-2.326a2.832,2.832,0,1,0-4.53,3.4l3.193,4.258a3.366,3.366,0,0,0,4.838.571l10.286-8.53a2.832,2.832,0,1,0-3.615-4.359Zm11.409-5.782a1.524,1.524,0,0,1-.2,2.147l-10.286,8.53a2.059,2.059,0,0,1-2.958-.349l-3.193-4.258a1.525,1.525,0,0,1,2.439-1.83l2.156,2.875a.654.654,0,0,0,.94.111l8.955-7.426A1.527,1.527,0,0,1,133.921,181.618Zm0,0" transform="translate(-105.15 -164.12)"/>
  </g>
</svg>
