<svg xmlns="http://www.w3.org/2000/svg" width="45.61" height="40.927" viewBox="0 0 45.61 40.927">
  <g id="warning" transform="translate(0 -0.5)">
    <path id="Path_365" data-name="Path 365" d="M40.218,41.427H5.392A5.383,5.383,0,0,1,.73,33.352L18.143,3.192a5.383,5.383,0,0,1,9.324,0l7.264,12.581a.891.891,0,0,1-1.543.891L25.924,4.082a3.6,3.6,0,0,0-6.238,0L2.273,34.243a3.6,3.6,0,0,0,3.119,5.4H40.218a3.6,3.6,0,0,0,3.119-5.4L37.2,23.607a.891.891,0,1,1,1.543-.891L44.88,33.352a5.383,5.383,0,0,1-4.662,8.075Zm0,0"/>
    <path id="Path_366" data-name="Path 366" d="M394.6,207.707a.891.891,0,1,1,.629-.261A.9.9,0,0,1,394.6,207.707Zm0,0" transform="translate(-358.635 -187.126)"/>
    <path id="Path_367" data-name="Path 367" d="M225.032,313.881a3.028,3.028,0,1,1,3.028-3.028A3.032,3.032,0,0,1,225.032,313.881Zm0-4.276a1.247,1.247,0,1,0,1.247,1.247A1.249,1.249,0,0,0,225.032,309.606Zm0,0" transform="translate(-202.227 -279.947)"/>
    <path id="Path_368" data-name="Path 368" d="M225.032,143.5A3.032,3.032,0,0,1,222,140.47v-7.5a3.028,3.028,0,1,1,6.057,0v7.5A3.032,3.032,0,0,1,225.032,143.5Zm0-11.775a1.248,1.248,0,0,0-1.247,1.247v7.5a1.247,1.247,0,0,0,2.494,0v-7.5A1.248,1.248,0,0,0,225.032,131.723Zm0,0" transform="translate(-202.227 -117.911)"/>
  </g>
</svg>
