<svg xmlns="http://www.w3.org/2000/svg" width="66.644" height="69.989" viewBox="0 0 66.644 69.989">
  <g id="work-from-home" transform="translate(-12.233 0)">
    <g id="Group_474" data-name="Group 474" transform="translate(12.233 0)">
      <path id="Path_301" data-name="Path 301" d="M111.368,386H76.023V369.444a1.025,1.025,0,1,0-2.05,0v17.577A1.025,1.025,0,0,0,75,388.046h36.37a1.025,1.025,0,1,0,0-2.05Z" transform="translate(-65.533 -318.057)"/>
      <path id="Path_302" data-name="Path 302" d="M77.048,28.68,46.974.558a2.082,2.082,0,0,0-2.836,0L14.063,28.68a5.719,5.719,0,0,0,3.906,9.9,5.692,5.692,0,0,0,2.792-.727L20.676,54.77a1.025,1.025,0,0,0,2.05,0l.084-18.642L45.537,14.1a.026.026,0,0,1,.037,0l1.752,1.7L68.3,36.127V67.939H57.1a1.025,1.025,0,1,0,0,2.05H69.325a1.025,1.025,0,0,0,1.025-1.025V37.848a5.692,5.692,0,0,0,2.792.727,5.719,5.719,0,0,0,3.906-9.9ZM76.554,34.2a3.61,3.61,0,0,1-3.412,2.322,3.65,3.65,0,0,1-2.553-1.034S46.952,12.582,46.927,12.56a2.059,2.059,0,0,0-2.817.065L20.522,35.491a3.649,3.649,0,0,1-2.553,1.034,3.668,3.668,0,0,1-2.506-6.348L45.538,2.056h0a.026.026,0,0,1,.036,0L75.648,30.178a3.609,3.609,0,0,1,.907,4.026Z" transform="translate(-12.233 0)"/>
      <path id="Path_303" data-name="Path 303" d="M271.744,397.616a.82.82,0,0,0-.822.563c0,.008-1.108,3.883-1.108,3.883l-1.148-3.891a.816.816,0,0,0-1.576.114l-1.032,5.72a.683.683,0,0,0,1.345.243l.619-3.432,1.021,3.459.008.024a.815.815,0,0,0,.774.556h0a.815.815,0,0,0,.772-.564l.007-.024.985-3.457.658,3.443a.683.683,0,1,0,1.343-.256l-1.1-5.73A.818.818,0,0,0,271.744,397.616Z" transform="translate(-231.35 -343.263)"/>
      <path id="Path_304" data-name="Path 304" d="M156.846,404.854a.683.683,0,0,0,.683-.683V398.3a.683.683,0,1,0-1.367,0v2.153h-2.7V398.3a.683.683,0,1,0-1.367,0v5.874a.683.683,0,0,0,1.367,0v-2.354h2.7v2.354A.683.683,0,0,0,156.846,404.854Z" transform="translate(-132.979 -343.261)"/>
      <path id="Path_305" data-name="Path 305" d="M335.1,399.372a.683.683,0,1,0,0-1.367h-2.452a.683.683,0,0,0-.684.684v5.82a.684.684,0,0,0,.684.684H335.1a.683.683,0,1,0,0-1.367h-1.769v-1.543h1.588a.683.683,0,0,0,0-1.367h-1.588v-1.543H335.1Z" transform="translate(-288.254 -343.599)"/>
      <path id="Path_306" data-name="Path 306" d="M202.454,401.233a3.62,3.62,0,1,0,3.62-3.62A3.625,3.625,0,0,0,202.454,401.233Zm5.874,0a2.254,2.254,0,1,1-2.254-2.254A2.256,2.256,0,0,1,208.328,401.233Z" transform="translate(-176.451 -343.261)"/>
      <path id="Path_307" data-name="Path 307" d="M330.438,260.149l2.41-2.216a.683.683,0,1,0-.925-1.006l-1.985,1.824v-1.395a.683.683,0,1,0-1.367,0v5.82a.683.683,0,0,0,1.367,0v-1.611l2.18,2.1a.683.683,0,0,0,.949-.984Z" transform="translate(-285.329 -221.587)"/>
      <path id="Path_308" data-name="Path 308" d="M156.135,256.7a.684.684,0,0,0-.8.537l-.708,3.56-1.121-3.638a.682.682,0,0,0-1.314.034l-1.116,3.6-.706-3.57a.683.683,0,1,0-1.341.265s1.149,5.8,1.16,5.829a.816.816,0,0,0,.768.542h.006a.815.815,0,0,0,.766-.553l1.124-3.629s1.119,3.631,1.122,3.64a.816.816,0,0,0,.768.542h.006a.815.815,0,0,0,.766-.553c.01-.028,1.162-5.807,1.162-5.807A.683.683,0,0,0,156.135,256.7Z" transform="translate(-130.315 -221.586)"/>
      <path id="Path_309" data-name="Path 309" d="M286.327,258.869a2.243,2.243,0,0,0-2.282-2.2H282.5a.691.691,0,0,0-.683.684v5.82a.683.683,0,0,0,1.367,0v-1.764l1.95,2.216a.683.683,0,0,0,1.026-.9l-1.528-1.736A2.215,2.215,0,0,0,286.327,258.869Zm-2.282.829-.856,0c0-.306,0-.64,0-.832,0-.163,0-.509,0-.829h.861a.833.833,0,1,1,0,1.658Z" transform="translate(-244.962 -221.587)"/>
      <path id="Path_310" data-name="Path 310" d="M218.5,256.673a3.594,3.594,0,1,0,3.593,3.594A3.6,3.6,0,0,0,218.5,256.673Zm0,5.82a2.227,2.227,0,1,1,2.227-2.227A2.229,2.229,0,0,1,218.5,262.493Z" transform="translate(-187.204 -221.587)"/>
      <path id="Path_311" data-name="Path 311" d="M305.727,333.777a.813.813,0,0,0,.772.556h0a.814.814,0,0,0,.771-.563l.007-.023.969-3.4.647,3.386a.683.683,0,1,0,1.343-.257l-1.085-5.678a.815.815,0,0,0-1.574-.089l-.007.024-1.084,3.8-1.124-3.81-.008-.025a.815.815,0,0,0-1.574.114l-1.023,5.668a.683.683,0,1,0,1.345.243l.609-3.374,1,3.4Z" transform="translate(-263.037 -282.426)"/>
      <path id="Path_312" data-name="Path 312" d="M157.39,328.822a.683.683,0,1,0,0-1.367h-2.342a.683.683,0,0,0-.683.684v5.778a.683.683,0,0,0,1.367,0v-2.26H157.2a.683.683,0,1,0,0-1.367h-1.472v-1.467Z" transform="translate(-134.936 -282.693)"/>
      <path id="Path_313" data-name="Path 313" d="M195.564,327.143a.691.691,0,0,0-.683.683v5.82a.683.683,0,0,0,1.367,0v-1.764l1.95,2.216a.683.683,0,1,0,1.026-.9L197.7,331.46a2.214,2.214,0,0,0,1.7-2.12,2.243,2.243,0,0,0-2.282-2.2h-1.549Zm2.463,2.2a.887.887,0,0,1-.915.829l-.856,0c0-.306,0-.64,0-.832,0-.163,0-.509,0-.829h.861A.887.887,0,0,1,198.028,329.339Z" transform="translate(-169.914 -282.424)"/>
      <path id="Path_314" data-name="Path 314" d="M239.038,330.737a3.594,3.594,0,1,0,3.594-3.594A3.6,3.6,0,0,0,239.038,330.737Zm5.82,0a2.227,2.227,0,1,1-2.227-2.227A2.229,2.229,0,0,1,244.858,330.737Z" transform="translate(-208.035 -282.424)"/>
    </g>
  </g>
</svg>
